<svg width="149" height="89" viewBox="0 0 149 89" fill="none" xmlns="http://www.w3.org/2000/svg">
<g opacity="0.2">
<path d="M132.224 88.6208C131.754 88.6208 131.283 88.5353 130.813 88.4498C120.339 85.5 124.785 69.7253 126.239 64.5525C129.103 54.378 135.687 46.3838 141.201 46.3838C141.714 46.3838 142.185 46.4693 142.655 46.5975C148.084 48.1365 149.709 58.5248 146.417 70.281C143.424 80.883 137.439 88.6208 132.224 88.6208ZM141.244 48.4785C137.268 48.4785 131.155 55.1476 128.334 65.1083C124.743 77.8051 125.769 84.7733 131.454 86.355C131.711 86.4405 131.967 86.4833 132.267 86.4833C135.9 86.4833 141.415 80.1991 144.408 69.6398C147.614 58.3538 145.818 49.6328 142.142 48.6068C141.843 48.5213 141.543 48.4785 141.244 48.4785Z" fill="#00ADF3"/>
<path d="M130.428 88.2787C130.343 88.2359 121.194 85.9274 114.91 83.5762C108.498 81.1822 105.933 76.8217 110.464 60.6622C115.893 41.4247 122.049 40.9972 127.393 42.1087C131.283 42.9209 142.227 46.2982 142.698 46.4265L142.056 48.4784C141.928 48.4357 130.728 44.9729 126.923 44.2034C123.289 43.4339 117.817 42.3225 112.473 61.218C107.942 77.292 110.892 79.7715 115.594 81.5242C121.75 83.8327 130.77 86.1412 130.856 86.184L130.428 88.2787Z" fill="#00ADF3"/>
<path d="M39.5847 53.9505C38.9007 53.9505 38.2167 53.865 37.5754 53.6512C34.5829 52.7107 32.4882 49.6755 31.7187 45.144C30.9919 40.869 31.5049 35.6535 33.1722 30.4808C36.7204 19.4085 44.2017 12.2265 50.2294 14.193C54.6754 15.6038 57.0267 21.717 56.2572 29.754L54.1197 29.5403C54.8037 22.6575 52.9654 17.3137 49.5882 16.245C44.8857 14.7487 38.3022 21.5888 35.2242 31.1648C33.6852 35.9955 33.1722 40.869 33.8562 44.802C34.4974 48.5213 36.0364 50.958 38.2594 51.642C41.2092 52.5825 45.0994 50.2313 48.3912 45.486L50.1439 46.683C46.8522 51.3428 43.0474 53.9505 39.5847 53.9505Z" fill="#00ADF3"/>
<path d="M36.1645 53.181C36.079 53.1382 26.2892 49.9748 21.544 48.1365C14.362 45.315 16.7132 34.7557 19.5775 25.821C23.596 13.2525 27.529 8.76376 33.514 9.87526C38.815 10.8585 49.2032 13.7227 49.6307 13.851L49.075 15.903C48.9895 15.8603 38.3447 12.9532 33.1292 11.97C29.239 11.2432 25.7762 13.4235 21.6295 26.4622C16.6705 41.895 19.663 45.1012 22.3562 46.1272C27.0587 47.9655 36.763 51.0863 36.8485 51.129L36.1645 53.181Z" fill="#00ADF3"/>
<path d="M110.122 68.8704L44.4581 45.6144C44.3298 45.5717 42.6198 44.8877 41.1236 43.0494C39.7556 41.3822 38.3448 38.4752 39.2426 33.8582C39.7983 30.9939 41.0381 28.8992 43.0046 27.6167C45.8688 25.6929 49.1178 26.3769 49.2461 26.3769L49.3743 26.4197L115.594 49.8467L114.867 51.8559L48.7331 28.4289C48.3483 28.3861 46.0398 28.0869 44.1161 29.3694C42.7053 30.3099 41.7221 31.9772 41.2946 34.2429C39.8838 41.3822 44.9711 43.4769 45.1848 43.5624L110.806 66.8184L110.122 68.8704Z" fill="#00ADF3"/>
<path d="M113.841 51.3001C112.43 47.0251 112.388 40.9119 113.67 34.5849C114.782 29.2839 116.705 24.4959 119.099 21.0331C121.664 17.3566 124.571 15.6039 127.222 16.1596C129.872 16.7154 131.839 19.4514 132.737 23.8546C133.592 27.9586 133.421 33.1314 132.309 38.4324C131.924 40.3561 131.369 42.2799 130.77 44.0754L128.761 43.3913C129.359 41.6813 129.83 39.8858 130.214 38.0476C131.24 33.0458 131.411 28.1724 130.642 24.3249C129.958 20.8621 128.547 18.6391 126.794 18.2971C125.042 17.9551 122.904 19.4086 120.852 22.3156C118.629 25.5219 116.791 30.0533 115.765 35.0551C114.525 40.9546 114.568 46.7686 115.85 50.6588L113.841 51.3001Z" fill="#00ADF3"/>
<path d="M17.4402 42.4507C13.2935 39.843 11.8828 30.951 13.9775 20.862C15.089 15.561 17.0127 10.773 19.4067 7.31023C21.9717 3.63373 24.8787 1.88097 27.5292 2.43672C30.2652 2.99247 32.2317 5.85673 33.0867 10.5165L30.992 10.9012C30.308 7.22469 28.8972 4.91623 27.1017 4.53148C25.349 4.18948 23.2115 5.64294 21.1595 8.54994C18.9365 11.7562 17.0983 16.2877 16.0723 21.2895C14.4905 29.0272 14.9607 38.3895 18.5945 40.6552L17.4402 42.4507Z" fill="#00ADF3"/>
<path d="M100.803 46.7259C99.5203 42.1944 99.5203 36.5514 100.888 30.0107C102.684 21.2897 105.292 15.9032 108.626 13.9794C110.208 13.0817 111.448 13.2954 111.79 13.3809L127.222 16.5872L126.795 18.6819L111.191 15.433C111.191 15.433 110.55 15.3047 109.524 15.9032C107.985 16.8437 105.121 20.0072 102.94 30.4382C101.658 36.5514 101.615 41.9807 102.812 46.1274L100.803 46.7259Z" fill="#00ADF3"/>
<path d="M54.7379 19.9443L54.3762 22.051L101.988 30.2247L102.35 28.1179L54.7379 19.9443Z" fill="#00ADF3"/>
<path d="M17.7393 42.6218L3.20426 39.1162L2.99051 38.9025C2.86226 38.7743 1.70801 37.5345 0.895765 34.2855C-0.172986 30.096 -0.301241 24.6668 0.596509 18.0405C2.73401 1.83828 13.336 0.128292 13.7635 0.0427917L13.9345 0L27.4863 2.43678L27.1015 4.53154L13.9345 2.1375C12.652 2.394 4.52951 4.61703 2.73401 18.2543C1.02401 31.122 3.71726 36.081 4.40126 37.107L18.295 40.4415L17.7393 42.6218Z" fill="#00ADF3"/>
</g>
</svg>
