<svg width="105" height="154" viewBox="0 0 105 154" fill="none" xmlns="http://www.w3.org/2000/svg">
<g opacity="0.2">
<path d="M77.6896 132.959C76.2118 133.362 74.8343 133.648 73.662 133.878C66.2954 135.174 58.9683 134.859 56.1479 133.761C50.571 131.636 47.5259 124.466 37.4443 100.816L35.7548 96.7875C24.5598 70.5515 18.3222 61.8963 18.2582 61.8249L19.9815 60.5556C20.2602 60.924 26.4225 69.4665 37.7386 95.9805L39.4281 100.009C49.2034 123.032 52.1913 129.995 56.892 131.825C59.4089 132.784 66.3733 133.064 73.2655 131.809C77.9363 130.981 86.1165 128.797 89.0245 123.517C87.534 117.657 72.9041 60.0498 72.5697 46.4092L74.7185 46.3572C75.1101 60.2044 91.0607 122.74 91.2324 123.36L91.3354 123.732L91.1692 124.088C88.6441 128.998 82.6565 131.606 77.6896 132.959Z" fill="#00ADF3"/>
<path d="M88.3965 140.182C86.9146 140.586 85.3274 140.93 83.6579 141.296C82.4526 141.58 81.1948 141.834 79.9072 142.14C64.2323 145.969 60.3001 145.838 58.2035 144.18C56.3404 142.726 55.5296 135.633 55.2848 132.668L57.4051 132.491C57.855 137.318 58.8056 141.875 59.506 142.487C61.1471 143.778 66.9337 143.092 79.3749 140.056C80.6624 139.749 81.95 139.443 83.1667 139.2C89.998 137.649 94.167 136.557 93.6341 133.67C93.037 130.711 89.2415 124.032 89.1774 123.96L91.0042 122.882C91.1668 123.15 95.0379 129.943 95.697 133.286C96.4641 137.179 93.1304 138.891 88.3965 140.182Z" fill="#00ADF3"/>
<path d="M21.2446 62.6516C17.4977 63.6739 13.8262 61.2848 11.7269 56.4143C9.07771 50.3553 11.4682 46.6691 11.5985 46.4997L11.6282 46.447C15.9095 40.9509 19.244 39.2379 23.8555 37.9797C25.379 37.564 27.0077 37.2088 28.8835 36.7862C31.4295 36.2253 34.3164 35.6161 37.8574 34.6499C38.8868 34.369 39.875 34.0994 40.8928 33.7771C41.5928 33.5861 42.2401 33.3648 42.9401 33.1738C53.4395 30.309 63.6546 29.6187 73.297 31.1818L73.4846 31.2198C75.7545 31.582 77.235 35.0152 77.6835 38.2391C78.1596 41.7232 77.5152 45.9592 74.2765 47.3783C73.611 47.6937 72.9225 47.9262 72.099 48.1509C69.2168 48.9374 65.7278 49.1308 61.6807 49.3874C58.2329 49.5696 54.3208 49.834 50.0246 50.4709C48.1967 50.7465 46.1859 51.1613 44.1684 51.7118C35.1512 54.1722 27.1193 58.5947 24.2795 60.9758C23.358 61.8072 22.3151 62.3595 21.2446 62.6516ZM13.3634 47.7582C13.1737 48.0331 11.6405 50.8161 13.7054 55.5621C15.3714 59.3462 18.0359 61.2962 20.7123 60.5659C21.4534 60.3637 22.2196 59.9316 22.9398 59.3335C26.3879 56.4295 34.8363 52.0719 43.6064 49.6789C45.7063 49.1059 47.7994 48.6687 49.7096 48.3705C54.0882 47.7112 58.053 47.4771 61.5419 47.2836C65.5067 47.0495 68.9018 46.837 71.537 46.118C72.2369 45.927 72.8431 45.717 73.3966 45.4768C75.5579 44.4855 75.9491 41.2555 75.5674 38.5934C75.1648 35.5354 73.8981 33.5163 73.159 33.4057L72.9714 33.3676C63.6104 31.8616 53.7066 32.5562 43.4953 35.3424C42.8366 35.5222 42.1777 35.7019 41.5304 35.9232C40.5125 36.2455 39.4832 36.5264 38.4538 36.8073C34.8717 37.7847 31.9436 38.4052 29.3564 38.9773C27.4806 39.3999 25.893 39.7438 24.4519 40.137C20.1583 41.2639 17.295 42.7591 13.3634 47.7582Z" fill="#00ADF3"/>
<path d="M66.6769 32.782C55.851 27.2585 23.7142 26.6577 20.2561 28.4044C17.882 29.5876 16.1659 38.7565 15.6555 44.9193L13.5253 44.742C13.7133 42.0582 14.9939 28.5909 19.2823 26.4838C21.7798 25.2669 31.9909 25.2024 40.8593 25.7273C46.6229 26.0732 60.7357 27.3088 67.6524 30.8649L66.6769 32.782Z" fill="#00ADF3"/>
<path d="M29.1479 26.273L27.085 26.7907C26.3372 23.93 26.9017 19.9123 26.938 19.7247L29.054 20.0364C29.0768 20.119 28.5144 23.8253 29.1479 26.273Z" fill="#00ADF3"/>
<path d="M48.4138 27.8074L46.5073 26.817C47.8706 24.0917 46.5849 21.2002 46.5849 21.2002L48.5036 20.322C48.5494 20.4872 50.2392 24.2012 48.4138 27.8074Z" fill="#00ADF3"/>
<path d="M65.2126 28.5752C61.5962 29.56 57.8125 27.3885 56.8045 23.7496C55.7964 20.1108 57.9306 16.3278 61.547 15.343C65.1635 14.3582 68.9471 16.5297 69.9552 20.1685C70.9632 23.8074 68.829 27.5904 65.2126 28.5752ZM62.1198 17.4105C59.6129 18.0932 58.1605 20.6677 58.8593 23.1901C59.558 25.7125 62.133 27.1903 64.6399 26.5076C67.1467 25.825 68.5991 23.2504 67.9004 20.7281C67.2016 18.2057 64.6266 16.7279 62.1198 17.4105Z" fill="#00ADF3"/>
<path d="M68.173 25.7382L66.124 26.2971L67.7218 32.0753L69.7708 31.5163L68.173 25.7382Z" fill="#00ADF3"/>
<path d="M58.1951 26.4095C58.0899 26.3491 48.0671 20.3495 39.2552 21.2804C33.0675 21.9418 26.27 20.7204 19.1143 17.7257L18.968 17.6765C17.5638 17.0791 17.236 16.0548 17.3702 15.2611C17.7342 13.3801 20.6867 12.2194 25.2862 12.2134C31.998 12.1665 57.4399 17.9294 58.5237 18.1686L58.0821 20.2489C57.8008 20.1918 31.7965 14.3149 25.343 14.336C21.5002 14.3585 19.9579 15.1796 19.5741 15.5514C19.6267 15.5816 19.6794 15.6118 19.7846 15.6723L19.931 15.7215C26.7414 18.5875 33.1639 19.7329 39.011 19.1198C48.5566 18.1226 58.8424 24.2733 59.2747 24.5564L58.1951 26.4095Z" fill="#00ADF3"/>
<path d="M51.2153 101.089C53.4289 100.486 55.6015 99.8951 57.8037 99.2513C57.3498 98.8861 56.9073 98.5622 56.4534 98.197C56.6083 99.71 56.7632 101.223 56.4327 102.735C55.8852 105.372 53.1404 105.808 50.9275 105.299C47.3015 104.465 45.1725 100.601 44.1039 97.3814C42.9895 93.9968 42.528 89.9458 43.3728 86.4723C43.8527 84.3866 45.331 82.5625 47.3758 81.8282C49.5846 81.0493 51.9771 82.842 51.9053 85.1276C51.8503 86.5199 54.0079 86.5103 54.0218 85.1291C54.1873 79.8411 48.0337 78.3167 44.4105 80.9912C39.877 84.3579 40.5386 91.1981 41.5914 96.1102C42.6786 101.146 45.7298 106.27 51.0082 107.499C53.4194 108.087 56.0315 107.332 57.5164 105.372C59.0423 103.402 58.8309 100.571 58.529 98.2097C58.4278 97.5264 57.9166 96.9546 57.1787 97.1554C54.9651 97.7578 52.7925 98.3491 50.5903 98.9929C49.331 99.3801 49.9035 101.446 51.2153 101.089Z" fill="#00ADF3"/>
<path d="M63.2283 90.8665C59.1261 91.3595 59.1984 97.0325 59.9307 99.9911C61.0168 104.543 65.4927 105.239 69.1591 103.174C75.5751 99.5613 68.674 86.9394 62.683 90.9703C61.566 91.7189 62.6504 93.5587 63.7674 92.8102C67.2599 90.4372 70.6385 97.5238 69.1706 100.191C68.6199 101.23 67.2994 101.723 66.2319 102.013C64.3432 102.527 62.8247 101.828 62.1328 99.9704C61.6884 98.8459 61.561 97.5908 61.4976 96.4072C61.4669 95.6595 62.2024 93.0579 63.2336 92.9554C64.5753 92.8573 64.5881 90.6746 63.2283 90.8665Z" fill="#00ADF3"/>
<path d="M71.7524 71.8724C72.3417 78.1449 72.368 84.9261 74.5047 90.9093C74.9512 92.2071 76.996 91.6488 76.5495 90.351C74.4584 84.5329 74.4482 77.9691 73.8635 71.8728C73.7556 70.5268 71.633 70.4852 71.7524 71.8724Z" fill="#00ADF3"/>
<path d="M77.1153 99.7123C77.1612 99.8777 77.207 100.043 77.2414 100.167C77.402 100.746 77.9797 101.078 78.5545 100.922C79.0881 100.777 79.4546 100.188 79.294 99.6088C79.2482 99.4435 79.2023 99.2781 79.1679 99.154C79.0073 98.5751 78.4296 98.2431 77.8549 98.3994C77.2801 98.5557 76.9137 99.1445 77.1153 99.7123Z" fill="#00ADF3"/>
</g>
</svg>
