<svg width="180" height="154" viewBox="0 0 180 154" fill="none" xmlns="http://www.w3.org/2000/svg">
<g opacity="0.2">
<path d="M117.146 142.13C114.2 142.13 111.311 141.725 108.537 140.859L18.4065 113.473C11.0689 111.219 5.58015 106.597 3.44242 100.762C1.65136 95.9664 2.34466 90.7665 5.29126 86.1444L54.9789 9.12865C58.6188 3.52435 66.4186 0 75.3739 0C78.7827 0 82.076 0.519973 85.2536 1.50217L160.825 25.7105C167.412 27.8482 172.611 32.0081 174.98 37.1502C176.656 40.7323 176.771 44.4877 175.327 47.8965C175.096 48.4743 150.83 110.237 141.297 128.494C136.963 136.756 127.488 142.13 117.146 142.13ZM75.4317 2.94658C67.5741 2.94658 60.5254 6.00872 57.4633 10.7464L7.77565 87.7622C5.29127 91.5754 4.77127 95.8509 6.21568 99.7797C8.06452 104.748 12.8022 108.735 19.2731 110.699L109.404 138.085C111.946 138.836 114.546 139.241 117.204 139.241C126.448 139.241 134.941 134.503 138.755 127.166C148.23 109.024 172.438 47.4343 172.669 46.8566C173.825 44.1411 173.709 41.2523 172.38 38.4212C170.358 34.088 165.736 30.3903 160.016 28.5415L84.4448 4.33322C81.556 3.4088 78.5516 2.94658 75.4317 2.94658Z" fill="#1DABCA"/>
<path d="M119.919 153.8C117.435 153.8 112.466 153.107 101.72 150.449C91.3778 147.849 77.9159 143.978 63.7607 139.472C39.2058 131.614 8.52661 120.579 2.98009 115.321C-3.31753 109.313 2.28678 96.0241 2.51788 95.4463L5.1756 96.6018C3.73119 99.9528 0.957914 109.428 4.94448 113.241C9.0466 117.17 33.3126 126.703 64.0496 136.525C96.4044 146.867 118.417 151.894 120.959 150.796C121.826 150.218 122.75 145.076 122.924 140.107L125.812 140.165C125.697 143.574 125.177 151.605 122.404 153.28C122.057 153.454 121.537 153.8 119.919 153.8Z" fill="#1DABCA"/>
<path d="M121.19 153.8L120.728 150.969C120.902 150.969 136.675 148.138 143.839 133.348C157.358 105.615 171.803 67.7714 176.078 48.9941C176.887 45.412 173.651 39.9233 172.322 38.1322L174.634 36.4567C174.865 36.7455 180.122 44.0831 178.851 49.6297C174.518 68.6381 159.958 106.713 146.381 134.619C138.581 150.738 121.884 153.685 121.19 153.8Z" fill="#1DABCA"/>
<path d="M118.302 127.339C106.804 127.339 82.7693 121.966 62.3742 114.859C47.4679 109.659 22.2197 99.2596 20.4286 87.8199C18.6376 76.2647 53.8233 31.1991 57.8677 26.057C64.9164 16.3506 70.6362 12.2485 77.1072 12.2485C79.9382 12.2485 82.9426 13.0574 86.5247 14.7907C88.3158 15.6573 89.3558 16.8706 89.7024 18.4306C90.5691 22.2438 86.8136 26.8082 82.5381 32.0658C79.1293 36.2257 75.605 40.5589 75.085 43.9099C74.7961 45.8166 75.4316 47.6654 77.0494 49.6298C85.3114 59.394 114.142 65.576 124.079 65.576C124.599 65.576 125.004 65.576 125.408 65.5183C135.923 64.6516 138.639 51.9408 140.661 42.6966C141.066 40.9056 141.412 39.2301 141.817 37.8434C142.741 34.4924 145.514 32.5858 149.443 32.5858C155.741 32.5858 161.807 36.9768 162.674 40.6167C164.061 46.6832 157.705 68.176 150.714 85.5089C146.15 96.7175 134.421 123.237 123.617 126.703C122.173 127.166 120.497 127.339 118.302 127.339ZM77.1072 15.1951C71.6762 15.1951 66.5919 19.0084 60.1787 27.8481C44.6947 47.5499 22.1041 79.6157 23.3174 87.4155C24.4152 94.522 39.3793 103.766 63.3564 112.144C83.5204 119.135 107.151 124.45 118.302 124.45C120.671 124.45 121.942 124.219 122.577 123.988C129.279 121.792 138.754 107.059 147.883 84.4111C156.203 63.8427 160.709 45.5277 159.727 41.2522C159.15 38.7101 154.007 35.4168 149.328 35.4168C146.728 35.4168 145.052 36.4568 144.532 38.5368C144.185 39.8078 143.839 41.4833 143.434 43.2166C141.354 52.8075 138.292 67.2516 125.639 68.2915C125.177 68.3493 124.657 68.3493 124.079 68.3493C113.448 68.3493 83.8092 61.9361 74.8539 51.4209C72.6584 48.8209 71.7918 46.1054 72.1962 43.3899C72.8895 39.2878 76.645 34.6657 80.2849 30.2169C83.6359 26.1148 87.4491 21.4927 86.8714 19.0083C86.8136 18.7772 86.6403 18.0262 85.2536 17.3328C82.0759 15.8884 79.476 15.1951 77.1072 15.1951Z" fill="#1DABCA"/>
<path d="M119.919 60.2606C113.795 60.2606 104.897 58.5273 97.2131 55.6963C90.7422 53.3274 83.0579 49.5142 82.9424 44.7188C82.769 34.6079 91.0888 26.5193 98.9464 23.1682C102.009 21.8972 105.706 21.2039 109.751 21.2039C113.853 21.2039 118.244 21.9549 122.346 23.3416C130.434 26.057 134.19 31.5458 134.19 40.6167C134.19 49.2831 132.861 55.3496 126.217 59.2207C124.83 59.9717 122.75 60.2606 119.919 60.2606ZM109.751 24.1504C106.111 24.1504 102.76 24.7282 100.102 25.8837C90.1644 30.1014 85.7156 38.5945 85.8312 44.7188C85.889 46.5098 89.1244 49.6876 98.1953 52.9808C105.475 55.6385 114.199 57.3718 119.861 57.3718C122.866 57.3718 124.195 56.9674 124.715 56.6785C130.203 53.5008 131.243 48.4165 131.243 40.5589C131.243 32.8169 128.181 28.3681 121.364 26.057C117.608 24.786 113.564 24.1504 109.751 24.1504Z" fill="#1DABCA"/>
<path d="M98.3588 25.3231L95.634 26.2827L98.705 35.0019L101.43 34.0422L98.3588 25.3231Z" fill="#1DABCA"/>
<path d="M107.614 23.3374L104.743 23.6592L105.773 32.8461L108.644 32.5243L107.614 23.3374Z" fill="#1DABCA"/>
<path d="M127.751 28.8767L120.522 34.6377L122.322 36.8967L129.551 31.1358L127.751 28.8767Z" fill="#1DABCA"/>
<path d="M131.667 37.3879L123.764 42.1838L125.263 44.6535L133.166 39.8576L131.667 37.3879Z" fill="#1DABCA"/>
<path d="M116.724 23.1332L109.588 40.314L112.255 41.4221L119.392 24.2413L116.724 23.1332Z" fill="#1DABCA"/>
</g>
</svg>
