<svg width="267" height="155" viewBox="0 0 267 155" fill="none" xmlns="http://www.w3.org/2000/svg">
<g opacity="0.2">
<path d="M248.556 116.542C248.352 116.576 248.147 116.61 248.01 116.633C241.447 117.235 236.338 114.059 232.74 107.024C229.891 101.49 227.972 93.6079 226.911 82.9664C225.058 64.4669 231.207 47.5994 240.348 46.0708C240.553 46.0366 240.757 46.0024 240.894 45.9796C245.523 45.5589 250.054 49.044 253.81 55.7701C257.277 62.0493 259.736 70.6186 260.685 79.7939C262.567 99.2784 257.425 115.059 248.556 116.542ZM240.872 49.5188C234.391 50.6025 228.522 65.0191 230.301 82.6824C231.336 92.7626 233.151 100.45 235.768 105.457C238.708 111.117 242.584 113.651 247.623 113.162C247.76 113.139 247.828 113.128 247.964 113.105C254.65 111.987 258.852 96.8592 257.158 80.1008C256.281 71.3379 253.985 63.307 250.724 57.4174C247.763 52.0434 244.25 49.1661 241.213 49.4618C241.144 49.4732 241.008 49.496 240.872 49.5188Z" fill="#1DABCA"/>
<path d="M247.162 116.78C247.026 116.803 231.884 118.625 221.015 118.743C209.929 118.826 203.41 113.618 200.674 86.3414C197.403 53.9186 206.409 49.5134 215.081 48.0645C221.432 47.0036 239.985 45.8144 240.748 45.7576L240.988 49.1844C240.783 49.2186 221.82 50.4762 215.606 51.5144C215.537 51.5258 215.469 51.5372 215.469 51.5372C209.528 52.5297 200.858 54.4026 204.068 86.0575C206.78 113.197 212.765 115.31 220.9 115.225C231.564 115.141 246.569 113.342 246.706 113.319L247.162 116.78Z" fill="#1DABCA"/>
<path d="M87.0448 119.035C86.7035 119.092 86.294 119.161 85.9409 119.149C75.7188 119.726 66.7179 105.388 65.4984 86.4951C64.8929 77.6848 66.1804 69.2653 68.9953 62.783C71.9558 55.9228 76.4048 51.9964 81.4817 51.7137C88.9829 51.2379 96.244 59.148 99.8362 71.8442L96.483 72.7583C93.4154 61.8841 87.5041 54.88 81.7328 55.208C77.9763 55.4116 74.6046 58.6627 72.1935 64.2288C69.5686 70.1842 68.4712 78.0768 68.9819 86.3372C70.0479 102.709 77.7109 116.21 85.7699 115.712C90.7786 115.441 95.2371 109.532 97.3852 100.403L100.762 101.253C98.3016 111.425 93.2554 117.997 87.0448 119.035Z" fill="#1DABCA"/>
<path d="M83.4971 119.411C83.3605 119.434 66.7303 120.373 58.4347 120.344C45.9229 120.311 43.1842 102.797 42.1699 87.5429C40.7831 66.0535 43.9921 56.9564 53.7224 55.1187C62.2916 53.475 79.6228 51.7118 80.3858 51.6551L80.7738 55.1279C80.5689 55.1621 62.8846 56.9135 54.3836 58.5459C48.0562 59.7444 44.1949 65.0591 45.6438 87.3163C47.3825 113.7 53.8187 116.799 58.4564 116.802C66.6155 116.854 83.1655 115.858 83.3139 115.904L83.4971 119.411Z" fill="#1DABCA"/>
<path d="M204.855 99.4903L91.559 102.75C91.3534 102.785 88.3118 102.725 85.0177 100.789C81.9768 99.0951 78.031 95.4204 76.667 87.9022C75.7902 83.2162 76.4504 79.268 78.5909 76.138C81.8194 71.5465 87.084 70.5941 87.3581 70.5483L87.5638 70.5138L201.762 67.1739L201.877 70.7082L87.8154 74.0252C87.1987 74.1284 83.5576 75.0933 81.4053 78.1542C79.8312 80.4788 79.3711 83.5407 80.0814 87.2596C82.1914 98.7039 90.804 99.181 91.513 99.2044L204.741 95.956L204.855 99.4903Z" fill="#1DABCA"/>
<path d="M200.237 70.3566C195.531 64.6374 191.838 55.4252 190.05 45.0458C186.829 26.3493 190.982 10.5214 199.511 9.0953C208.041 7.66917 217.25 21.1921 220.483 39.9574C221.027 43.1193 221.367 46.3155 221.479 49.4084L217.996 49.5664C217.84 46.6224 217.524 43.5637 217.003 40.5393C214.563 26.3794 206.995 11.3799 200.035 12.5436C193.075 13.7073 190.954 30.3269 193.393 44.4868C195.063 54.1788 198.548 63.0014 202.806 68.1589L200.237 70.3566Z" fill="#1DABCA"/>
<path d="M48.7854 114.148C41.0179 112.62 33.5755 99.9399 30.7259 83.3806C27.5098 64.6913 31.6605 48.8691 40.1822 47.4427C44.6135 46.7011 49.2979 49.8756 53.3672 56.4049L50.4559 58.2353C47.2484 53.0462 43.7049 50.3876 40.7734 50.8783C33.8197 52.0421 31.6989 68.6557 34.1346 82.8101C36.322 95.5216 42.6464 109.449 49.4686 110.782L48.7854 114.148Z" fill="#1DABCA"/>
<path d="M177.8 71.1996C173.155 65.0419 169.85 56.4671 168 45.7387C165.522 31.3655 166.232 21.6247 170.108 16.8026C171.962 14.5119 173.93 14.1122 174.545 14.0095L199.746 9.79914L200.339 13.2377L174.865 17.4937C174.865 17.4937 173.772 17.6763 172.631 19.2112C170.926 21.5479 168.463 28.0441 171.415 45.1682C173.146 55.2088 176.324 63.4512 180.601 69.1044L177.8 71.1996Z" fill="#1DABCA"/>
<path d="M168.923 41.9894L91.895 57.7683L92.6039 61.2137L169.632 45.4347L168.923 41.9894Z" fill="#1DABCA"/>
<path d="M49.2782 114.27L25.2574 117.507L24.8004 117.3C24.5037 117.208 22.0351 115.924 18.885 111.499C14.7471 105.825 11.3549 97.5508 8.76775 87.0202C2.3427 61.1461 17.249 52.2889 17.8842 51.8998L18.1454 51.7855L40.0299 47.5617L40.6905 50.9877L19.4203 55.1088C17.6512 56.2533 6.69212 64.38 12.1451 86.2435C17.2484 106.892 24.2351 112.797 25.9055 113.933L48.8343 110.878L49.2782 114.27Z" fill="#1DABCA"/>
</g>
</svg>
