<svg width="108" height="116" viewBox="0 0 108 116" fill="none" xmlns="http://www.w3.org/2000/svg">
<g opacity="0.2">
<path d="M64.2826 107.958C51.7977 109.996 40.3135 107.801 31.0146 101.639C20.6781 94.7301 13.3948 82.9095 9.87909 67.3792C8.24686 60.0234 8.34662 53.8176 10.2426 48.4649C13.0588 40.4403 19.8564 34.4021 30.4229 30.4423L31.436 33.0851C21.6738 36.7417 15.4672 42.2249 12.9085 49.4052C10.626 55.8526 11.6647 62.3883 12.6161 66.7032C19.0883 95.448 38.6426 109.736 64.9061 104.876C85.1494 101.171 94.689 87.0053 96.6523 57.5713C97.4996 45.2832 92.1565 37.215 87.5596 32.5782C81.0444 26.0194 72.556 22.992 67.5333 23.296C60.7719 23.7693 55.2106 28.001 55.1089 28.0749L53.3657 25.8378C53.6151 25.6251 59.6845 21.0239 67.2877 20.4706C72.7542 20.0941 82.0382 23.1063 89.4986 30.5424C94.5125 35.6269 100.319 44.4218 99.4186 57.7502C98.4547 72.0631 95.8461 82.3462 91.2905 90.1962C85.7111 99.7608 77.2569 105.439 65.3643 107.609C65.0595 107.831 64.671 107.894 64.2826 107.958Z" fill="#1DABCA"/>
<path d="M49.9186 45.4643C48.4177 45.7101 46.9162 45.6109 45.6179 45.0185C40.6658 42.7241 37.0904 43.8847 37.0348 43.8938L36.2809 41.7745C36.4383 41.6912 40.6621 40.3094 46.5323 42.971C51.234 45.1339 59.9895 37.7192 61.1455 36.0922L62.9638 37.4046C62.224 38.4459 59.4477 40.9708 56.2812 42.8696C54.4665 43.9719 52.1978 45.091 49.9186 45.4643Z" fill="#1DABCA"/>
<path d="M48.6539 45.7789C48.4877 45.8061 48.3769 45.8241 48.192 45.7398C47.656 45.5984 47.2857 45.0865 47.3031 44.5112L50.2574 17.639C50.2842 17.1194 50.6715 16.7127 51.1701 16.6313L58.2064 15.4821C58.5942 15.4187 59.0194 15.5783 59.2417 15.8854C59.5193 16.1835 59.594 16.6293 59.4284 16.9998L49.4931 45.0122C49.3368 45.4384 49.0417 45.7156 48.6539 45.7789ZM52.3839 18.78L50.5842 35.2169L56.7054 18.0742L52.3839 18.78Z" fill="#1DABCA"/>
<path d="M44.5848 40.1522C34.7693 41.7545 28.1166 28.5781 27.4113 27.0894C24.8685 21.7767 20.7412 14.4887 20.7225 14.3772L19.2664 11.8082L22.0416 12.7299C23.975 13.388 25.0754 13.4948 26.2406 13.6483C28.2195 13.898 30.0227 14.1192 35.4081 16.6768C44.1338 20.8084 49.7546 35.9861 49.9777 36.6371L50.2843 37.4462L49.5733 37.9632C47.8928 39.154 46.2485 39.8806 44.5848 40.1522ZM23.9513 15.6257C25.4168 18.2504 27.7453 22.6245 29.4158 26.1322C31.7729 31.017 37.5009 39.0174 44.211 37.9221C45.3201 37.741 46.3825 37.2812 47.5277 36.6361C46.246 33.4086 41.2514 21.9663 34.4504 18.7806C29.4351 16.3917 27.7428 16.1524 25.9396 15.9312C25.357 15.8545 24.719 15.7868 23.9513 15.6257Z" fill="#1DABCA"/>
<path d="M48.1325 29.8567C46.5769 30.1109 45.1224 29.9467 44.8909 29.9271L45.0441 27.4338C45.8219 27.3067 48.1564 27.614 49.5073 26.8192L50.7243 28.9739C49.9377 29.3895 49.0214 29.7114 48.1325 29.8567Z" fill="#1DABCA"/>
</g>
</svg>
