<svg width="265" height="207" viewBox="0 0 265 207" fill="none" xmlns="http://www.w3.org/2000/svg">
<g opacity="0.2">
<path d="M170.046 195.044C169.827 195.007 169.618 194.915 169.427 194.713C163.735 188.883 146.707 174.684 122.844 162.561C115.702 158.921 109.386 156.043 103.798 153.515C85.5775 145.231 74.6105 140.266 65.0966 122.352C64.2047 120.673 63.1441 117.04 62.1217 113.186C61.1776 109.856 60.1979 106.406 59.5225 105.103C54.0996 94.7877 48.4264 87.5447 38.5771 85.8831C34.8562 85.2554 30.6095 85.3884 25.6536 86.3645C25.1326 86.4465 24.614 86.1891 24.4166 85.7027C24.2192 85.2164 24.4334 84.6296 24.8736 84.3641C28.9827 81.7729 125.465 20.8648 129.003 18.9701C130.607 18.1647 133.8 18.59 135.113 18.8116C137.63 19.2362 159.677 23.6351 162.74 47.2564C165.858 70.8869 249.618 116.333 250.436 116.811C250.8 116.986 251.017 117.362 251.005 117.756C251.047 118.16 250.817 118.517 250.55 118.756C250.357 118.893 230.406 132.969 212.203 152.889C193.916 172.965 171.171 194.724 170.969 194.917C170.731 194.99 170.374 195.099 170.046 195.044ZM38.9676 83.6273C49.6924 85.4366 55.7462 93.0834 61.4569 104.013C62.2584 105.564 63.2476 108.959 64.2535 112.583C65.2688 116.152 66.2747 119.776 67.0857 121.272C76.2666 138.507 86.9696 143.371 104.771 151.471C110.36 153.999 116.73 156.886 123.927 160.535C150.428 174.01 166.611 188.858 170.284 192.366C174.413 188.362 194.31 169.068 210.645 151.154C226.143 134.175 242.944 121.38 247.909 117.744C235.922 111.191 163.66 70.5727 160.639 47.355C157.747 25.3482 137.168 21.2535 134.815 20.8566C132.134 20.4043 130.526 20.586 130.095 20.7965C127.061 22.38 49.9325 71.0367 30.5146 83.3338C33.5385 83.1078 36.3958 83.1934 38.9676 83.6273Z" fill="#1DABCA"/>
<path d="M36.8556 125.227C33.1899 124.609 29.2294 123.091 24.9645 120.73C19.9266 117.955 12.4559 110.693 12.2526 102.11C12.118 95.406 16.3247 89.3215 24.7346 84.0025L25.9261 85.9021C18.2133 90.7724 14.3397 96.2338 14.5077 102.094C14.6636 109.65 21.7181 116.389 26.0829 118.824C34.6031 123.602 41.844 124.71 47.5607 121.937C56.8959 117.454 59.291 104.27 59.291 104.27L61.4795 104.639C61.4795 104.639 60.8699 108.159 58.9686 112.312C56.4367 117.829 52.875 121.815 48.5143 123.91C45.0244 125.529 41.123 125.947 36.8556 125.227Z" fill="#1DABCA"/>
<path d="M36.2739 120.089C30.9676 119.194 25.4761 116.117 21.1907 111.601C16.7151 106.883 15.6694 101.216 18.3437 96.1759C21.351 90.5128 28.3943 87.2287 35.0136 88.3452L35.2324 88.3821C40.9026 89.4518 50.7561 94.0009 53.1833 101.77C54.7452 106.732 52.8915 111.91 47.7698 117.103C45.103 119.824 41.0332 120.892 36.2739 120.089ZM34.6327 90.5453C28.8887 89.5764 22.8801 92.4123 20.2987 97.2416C18.0598 101.393 18.9938 106.079 22.8083 110.062C26.7132 114.174 31.7861 117.068 36.6548 117.889C40.703 118.572 44.0592 117.723 46.2382 115.543C50.7439 110.982 52.4095 106.564 51.0973 102.437C49.1265 95.9338 40.4123 91.6334 34.8515 90.5822L34.6327 90.5453Z" fill="#1DABCA"/>
<path d="M35.04 112.917C34.3835 112.806 33.6818 112.631 33.0444 112.411C30.5494 111.537 28.3352 109.692 26.9916 107.371C25.6029 104.987 25.2107 102.374 25.9935 100.129C27.3997 96.2345 31.7883 93.9753 36.493 94.7688C37.1495 94.8795 37.8511 95.0545 38.4885 95.2752C40.9835 96.1488 43.1977 97.9937 44.5413 100.314C45.9301 102.699 46.3222 105.312 45.5394 107.557C44.1333 111.451 39.6899 113.701 35.04 112.917ZM36.1573 97.0326C32.5468 96.4236 29.1667 98.0607 28.1055 100.938C27.5559 102.486 27.834 104.457 28.9255 106.283C30.0075 108.163 31.8317 109.659 33.7987 110.331C34.3267 110.533 34.8642 110.68 35.4113 110.772C39.0218 111.381 42.4019 109.744 43.463 106.867C44.0127 105.319 43.7346 103.348 42.6431 101.522C41.5611 99.6419 39.7369 98.1457 37.7699 97.4744C37.1872 97.2629 36.6497 97.1156 36.1573 97.0326Z" fill="#1DABCA"/>
<path d="M38.2229 104.966C38.0149 106.174 36.859 106.995 35.6544 106.79C34.4498 106.586 33.6344 105.431 33.8424 104.223C34.0505 103.015 35.2063 102.194 36.4109 102.398C37.6061 102.657 38.431 103.758 38.2229 104.966Z" fill="#1DABCA"/>
</g>
</svg>
