<svg width="120" height="135" viewBox="0 0 120 135" fill="none" xmlns="http://www.w3.org/2000/svg">
<g opacity="0.2">
<path d="M74.8453 129.381C66.5319 130.051 58.2533 128.167 50.266 123.835C40.1946 118.302 30.5372 108.818 21.5502 95.4851C6.77059 73.6627 1.21294 51.6571 5.97231 33.6717C8.7951 22.9329 15.2728 14.3876 23.7232 10.1615C27.4738 8.30445 31.2299 7.25543 35.3558 6.92304C41.7602 6.4071 49.12 7.68017 58.5129 11.0285C60.0627 11.028 67.4631 11.3026 76.7288 16.8381C93.4993 26.8692 103.115 46.2465 108.172 60.7666C108.993 62.4419 118.445 81.335 115.665 95.5534C113.156 108.568 105.319 117.907 91.0191 124.844C85.719 127.448 80.2644 128.944 74.8453 129.381ZM35.5264 9.70819C31.8316 10.0059 28.3166 10.9732 24.9252 12.677C17.188 16.5346 11.2129 24.4175 8.57453 34.3951C4.06115 51.6142 9.49012 72.8216 23.7819 93.9991C39.414 117.121 56.5135 128.121 74.6183 126.663C79.6679 126.256 84.7581 124.85 89.7606 122.395C103.403 115.76 110.574 107.346 112.955 95.0254C115.597 81.3778 105.74 62.0821 105.663 61.9017L105.586 61.7213C88.6177 12.957 58.6168 13.7568 58.3037 13.7198L58.0574 13.7397L57.8008 13.636C48.6748 10.5149 41.5613 9.22201 35.5264 9.70819Z" fill="#1DABCA"/>
<path d="M92.9069 77.623C91.7983 77.7123 90.6794 77.678 89.5449 77.4583C81.1781 76.0174 77.0324 67.9537 72.9689 60.1322C71.0527 56.4921 69.1211 52.6666 66.769 49.7458C63.0251 45.0088 57.5372 42.4028 52.6909 40.0562C48.3631 37.9789 44.2972 36.0671 42.1708 32.8793C39.69 29.1603 39.1495 25.6581 40.426 22.3828C43.6611 14.3466 57.4151 11.2481 57.9643 11.1416L58.5609 13.8306C58.4377 13.8405 45.6588 16.7361 42.9928 23.4201C42.0136 25.8006 42.5435 28.4327 44.4593 31.3264C46.1593 33.8643 49.7119 35.5687 53.8446 37.5374C58.9475 39.9877 64.6974 42.7591 68.8521 47.9607C71.348 51.1187 73.3515 55.0628 75.3395 58.8216C79.2541 66.344 82.8912 73.5156 89.9338 74.69C93.2703 75.2921 96.3546 74.3594 99.0635 71.9018C103.27 68.0794 105.223 61.7638 105.104 59.5962L107.819 59.4397C108.031 62.7195 105.525 69.8261 100.912 73.9922C98.547 76.1111 95.8016 77.3898 92.9069 77.623Z" fill="#1DABCA"/>
<path d="M7.17856 41.0994L4.87587 39.5397C18.1055 19.5197 41.8644 27.5144 42.1213 27.6184L41.2231 30.247C40.3288 29.9451 19.2578 22.9179 7.17856 41.0994Z" fill="#1DABCA"/>
<path d="M89.8732 125.126L87.6371 123.505C101.613 104.294 88.8711 77.4274 88.784 77.1238L91.2188 75.9328C91.3672 76.2315 94.6588 83.1105 96.1965 92.6788C98.2416 105.375 96.0862 116.609 89.8732 125.126Z" fill="#1DABCA"/>
<path d="M83.7124 105.651C81.9883 105.79 80.0693 105.82 78.0783 105.732C60.5702 104.655 47.7467 92.1302 40.0709 81.8651C36.9954 77.6973 31.3215 69.1367 27.9967 58.2724C24.5075 46.9237 24.6978 36.5846 28.5318 27.569L31.0415 28.6728C21.6049 50.7646 38.7339 75.5049 42.2868 80.194C52.7609 94.276 65.1922 102.106 78.2772 102.917C88.0627 103.559 94.7675 99.9716 94.8291 99.9666L96.1489 102.41C95.8514 102.558 91.101 105.056 83.7124 105.651Z" fill="#1DABCA"/>
<path d="M16.5474 87.7241C15.1293 84.8524 13.5305 79.818 13.0663 75.0032C12.545 68.7622 14.1089 64.4684 17.6811 62.6876C25.1847 58.9728 32.1648 66.8084 39.1916 75.9467L37.0362 77.6134C28.2065 66.1942 23.4667 62.9058 18.9399 65.1367C12.9811 68.0428 16.5909 81.5621 18.9853 86.4702L16.5474 87.7241Z" fill="#1DABCA"/>
<path d="M55.8382 112.018C54.1134 112.157 52.4241 111.236 51.6739 109.679C51.155 108.663 51.1185 107.484 51.462 106.399C51.8055 105.314 52.6007 104.441 53.6118 103.924C54.0891 103.699 54.6332 103.531 55.126 103.491C56.8507 103.352 58.5401 104.274 59.2902 105.831C59.8092 106.846 59.8456 108.025 59.5022 109.11C59.1587 110.195 58.3634 111.068 57.3524 111.585C56.8802 111.872 56.3926 111.973 55.8382 112.018ZM55.3582 106.272C55.1734 106.287 54.9938 106.363 54.8142 106.44C54.4549 106.593 54.1727 106.927 54.0805 107.308C53.9266 107.693 53.9628 108.126 54.1785 108.482C54.5484 109.198 55.447 109.561 56.2219 109.188C56.5812 109.035 56.8634 108.701 56.9556 108.32C57.1095 107.935 57.0733 107.502 56.8576 107.146C56.5596 106.548 55.9742 106.222 55.3582 106.272Z" fill="#1DABCA"/>
<path d="M75.9343 119.252C74.1479 119.396 72.4535 118.412 71.6365 116.799C71.1124 115.721 71.0144 114.547 71.4194 113.457C71.8245 112.367 72.553 111.437 73.6257 110.915C74.103 110.69 74.6471 110.522 75.2015 110.477C76.9878 110.334 78.6823 111.317 79.4993 112.931C80.0234 114.008 80.1214 115.182 79.7164 116.272C79.3729 117.357 78.5828 118.292 77.5101 118.814C77.0328 119.039 76.4887 119.207 75.9343 119.252ZM75.4337 113.258C75.2489 113.273 75.0077 113.355 74.828 113.431C74.4123 113.651 74.1301 113.985 74.0379 114.366C73.8841 114.751 73.9254 115.246 74.1411 115.602C74.5162 116.38 75.5379 116.733 76.3129 116.36C76.7286 116.14 77.0108 115.806 77.103 115.425C77.2569 115.039 77.2156 114.545 76.9998 114.189C76.7634 113.586 76.1113 113.203 75.4337 113.258Z" fill="#1DABCA"/>
<path d="M40.3237 100.061C38.0445 100.245 36.0468 98.6015 35.7378 96.387C35.5833 95.2798 35.86 94.1378 36.5886 93.2082C37.3171 92.2786 38.2614 91.705 39.4266 91.5489C41.7571 91.2367 43.8831 92.9316 44.1973 95.208C44.5166 97.546 42.8953 99.6672 40.5649 99.9793C40.5085 100.046 40.4469 100.051 40.3237 100.061ZM39.8437 94.3146L39.7821 94.3195C39.3509 94.3543 38.9968 94.5693 38.7762 94.8981C38.5556 95.2269 38.4018 95.6126 38.4995 96.0402C38.6282 96.8385 39.2958 97.4067 40.0966 97.3422L40.1582 97.3372C40.9538 97.2109 41.5746 96.4767 41.4408 95.6166C41.3737 94.8133 40.6445 94.25 39.8437 94.3146Z" fill="#1DABCA"/>
<path d="M28.3432 85.7646C26.064 85.9482 24.0664 84.3052 23.7574 82.0907C23.6029 80.9834 23.8796 79.8414 24.6081 78.9118C25.2751 77.9872 26.281 77.4085 27.4462 77.2524C29.7766 76.9403 31.8975 78.5734 32.2168 80.9115C32.3713 82.0188 32.0946 83.1608 31.3661 84.0903C30.6991 85.0149 29.6932 85.5936 28.528 85.7497C28.528 85.7497 28.4664 85.7547 28.3432 85.7646ZM27.9248 80.0131L27.8632 80.0181C27.432 80.0528 27.0779 80.268 26.8573 80.5968C26.6367 80.9256 26.4829 81.3113 26.5806 81.7388C26.7093 82.5371 27.3769 83.1054 28.1777 83.0409L28.2393 83.0359C28.6705 83.0012 29.0246 82.7861 29.2452 82.4573C29.4658 82.1285 29.6196 81.7428 29.5219 81.3152C29.3932 80.5169 28.7256 79.9486 27.9248 80.0131Z" fill="#1DABCA"/>
</g>
</svg>
