<svg width="135" height="196" viewBox="0 0 135 196" fill="none" xmlns="http://www.w3.org/2000/svg">
<g opacity="0.2">
<path d="M98.62 169.427C96.6866 169.922 94.886 170.267 93.354 170.544C83.7298 172.084 74.1894 171.527 70.5365 170.04C63.3126 167.16 59.4886 157.759 46.8263 126.746L44.7056 121.465C30.6444 87.0617 22.6904 75.6612 22.6085 75.5669L24.8792 73.9478C25.2349 74.4334 33.093 85.6854 47.3065 120.453L49.4272 125.734C61.703 155.923 65.4567 165.054 71.5448 167.533C74.805 168.832 83.8735 169.337 92.8787 167.84C98.9812 166.855 109.683 164.174 113.578 157.353C111.753 149.689 93.8443 74.3484 93.6816 56.5716L96.4823 56.5468C96.7154 74.594 116.246 156.382 116.458 157.193L116.584 157.679L116.361 158.14C112.972 164.485 105.119 167.764 98.62 169.427Z" fill="#1DABCA"/>
<path d="M112.425 179.055C110.486 179.552 108.411 179.968 106.228 180.411C104.652 180.757 103.008 181.063 101.324 181.436C80.8246 186.11 75.7039 185.86 73.0054 183.658C70.607 181.726 69.6924 172.47 69.4327 168.602L72.1989 168.414C72.6885 174.712 73.8359 180.668 74.7363 181.478C76.8487 183.194 84.402 182.416 100.673 178.71C102.356 178.336 104.04 177.963 105.63 177.671C114.562 175.788 120.016 174.448 119.379 170.676C118.66 166.81 113.848 158.031 113.766 157.937L116.168 156.569C116.375 156.921 121.283 165.848 122.075 170.217C122.996 175.305 118.618 177.468 112.425 179.055Z" fill="#1DABCA"/>
<path d="M26.4849 76.699C21.5826 77.9558 16.8466 74.7697 14.2088 68.3823C10.8782 60.4355 14.0666 55.681 14.2397 55.4629L14.2794 55.3948C19.9675 48.3204 24.3464 46.1556 30.38 44.6087C32.3732 44.0977 34.5024 43.6676 36.9549 43.1546C40.2834 42.475 44.057 41.7392 48.6899 40.5514C50.0367 40.2061 51.3296 39.8747 52.6623 39.4751C53.5781 39.2403 54.4259 38.965 55.3417 38.7302C69.079 35.2084 82.4022 34.5139 94.9342 36.7435L95.1779 36.7968C98.1281 37.3142 99.9885 41.8166 100.508 46.0258C101.059 50.5744 100.135 56.0802 95.8867 57.864C95.0132 58.2617 94.1115 58.5508 93.0341 58.827C89.2631 59.7938 84.7134 59.9759 79.4351 60.229C74.9393 60.3973 69.8369 60.6633 64.2265 61.4069C61.8394 61.7294 59.2112 62.2294 56.5715 62.9062C44.7737 65.9309 34.2203 71.5314 30.4726 74.5766C29.2554 75.6413 27.8856 76.3399 26.4849 76.699ZM16.514 57.1379C16.2614 57.4922 14.2081 61.0872 16.8036 67.3118C18.8987 72.275 22.3314 74.8689 25.833 73.9712C26.8027 73.7226 27.8096 73.175 28.76 72.4102C33.3106 68.696 44.4053 63.1883 55.8799 60.2465C58.6274 59.5421 61.3633 59.0144 63.8581 58.6643C69.5763 57.8931 74.7467 57.6676 79.2964 57.4854C84.4668 57.2599 88.8947 57.0512 92.3424 56.1672C93.2583 55.9324 94.0522 55.671 94.7782 55.3691C97.6141 54.1209 98.1884 49.9208 97.7442 46.4449C97.2808 42.4529 95.6707 39.797 94.71 39.638L94.4663 39.5847C82.2998 37.4351 69.382 38.1414 56.0219 41.5666C55.1599 41.7876 54.2979 42.0086 53.4501 42.2838C52.1174 42.6834 50.7707 43.0287 49.4239 43.374C44.737 44.5756 40.9096 45.3252 37.5272 46.0187C35.0748 46.5316 32.9994 46.9479 31.1139 47.4313C25.4972 48.8133 21.7365 50.7039 16.514 57.1379Z" fill="#1DABCA"/>
<path d="M86.2786 38.6954C72.2837 31.2823 30.4239 29.8553 25.8833 32.0616C22.7665 33.5555 20.3472 45.4664 19.559 53.485L16.7871 53.2114C17.0857 49.7187 19.0235 32.1991 24.653 29.5399C27.9314 28.0046 41.2369 28.1252 52.7813 28.9869C60.2838 29.5531 78.6471 31.4458 87.5879 36.2174L86.2786 38.6954Z" fill="#1DABCA"/>
<path d="M37.5116 29.4629L34.8135 30.096C33.8965 26.3543 34.7123 21.1314 34.7634 20.8878L37.5141 21.3362C37.5422 21.4443 36.7352 26.2614 37.5116 29.4629Z" fill="#1DABCA"/>
<path d="M62.5816 31.8476L60.1174 30.5192C61.9482 26.9961 60.3309 23.2034 60.3309 23.2034L62.8484 22.0978C62.9047 22.3139 65.0321 27.1862 62.5816 31.8476Z" fill="#1DABCA"/>
<path d="M84.4527 33.1837C79.7209 34.3943 74.8345 31.4897 73.5939 26.729C72.3534 21.9683 75.2098 17.0828 79.9415 15.8722C84.6733 14.6617 89.5597 17.5663 90.8002 22.327C92.0408 27.0876 89.1844 31.9732 84.4527 33.1837ZM80.6464 18.5772C77.3664 19.4163 75.4225 22.7412 76.2824 26.0412C77.1424 29.3412 80.4678 31.318 83.7478 30.4788C87.0277 29.6397 88.9717 26.3148 88.1118 23.0148C87.2518 19.7148 83.9263 17.738 80.6464 18.5772Z" fill="#1DABCA"/>
<path d="M88.3664 29.5481L85.6855 30.2352L87.6518 37.7949L90.3326 37.1078L88.3664 29.5481Z" fill="#1DABCA"/>
<path d="M75.3554 30.2219C75.2195 30.1411 62.2805 22.1243 50.7806 23.1606C42.7052 23.8984 33.8729 22.171 24.6094 18.1264L24.4197 18.0594C22.6021 17.253 22.1955 15.9121 22.3862 14.8807C22.8982 12.4376 26.7683 10.9845 32.7613 11.0689C41.5072 11.1421 74.5411 19.1592 75.9485 19.4926L75.3314 22.1938C74.9661 22.1139 41.2017 13.9369 32.7928 13.8352C27.7854 13.7876 25.7594 14.8264 25.252 15.3031C25.3199 15.3435 25.3879 15.3839 25.5237 15.4647L25.7135 15.5318C34.5297 19.4019 42.8749 21.0227 50.5056 20.341C62.9628 19.233 76.2415 27.4518 76.7992 27.8293L75.3554 30.2219Z" fill="#1DABCA"/>
<path d="M64.7656 127.378C67.6616 126.638 70.5041 125.911 73.3861 125.116C72.802 124.631 72.2319 124.201 71.6478 123.716C71.8194 125.69 71.991 127.664 71.5304 129.627C70.7644 133.052 67.1797 133.564 64.3066 132.857C59.5991 131.697 56.9024 126.621 55.5743 122.405C54.1898 117.973 53.6693 112.687 54.8392 108.178C55.5061 105.471 57.4685 103.124 60.1473 102.209C63.0406 101.238 66.122 103.622 65.9828 106.598C65.8834 108.411 68.6946 108.442 68.7403 106.643C69.0614 99.7569 61.0744 97.6474 56.3006 101.059C50.3269 105.354 51.0524 114.278 52.3262 120.698C53.6423 127.281 57.5154 134.017 64.3678 135.725C67.4977 136.539 70.916 135.607 72.8897 133.085C74.917 130.548 74.698 126.857 74.3518 123.774C74.2335 122.882 73.5789 122.127 72.6136 122.373C69.7175 123.114 66.875 123.84 63.9931 124.635C62.3446 125.114 63.0494 127.817 64.7656 127.378Z" fill="#1DABCA"/>
<path d="M80.6183 114.302C75.2646 114.861 75.2464 122.254 76.1417 126.124C77.4663 132.077 83.2832 133.073 88.1002 130.457C96.5299 125.88 87.7902 109.295 79.9059 114.426C78.4359 115.379 79.8121 117.798 81.2821 116.845C85.8787 113.824 90.1395 123.125 88.1744 126.571C87.4364 127.914 85.7065 128.529 84.3101 128.886C81.8395 129.517 79.8752 128.576 79.0107 126.141C78.4541 124.667 78.313 123.029 78.254 121.486C78.2287 120.511 79.2384 117.136 80.5839 117.023C82.3335 116.923 82.3934 114.079 80.6183 114.302Z" fill="#1DABCA"/>
<path d="M92.1061 89.7257C92.7489 97.9092 92.6481 106.744 95.3124 114.582C95.8683 116.282 98.5432 115.595 97.9873 113.896C95.3791 106.274 95.4966 97.7225 94.8563 89.7686C94.7425 88.013 91.9782 87.9161 92.1061 89.7257Z" fill="#1DABCA"/>
<path d="M98.5358 126.104C98.5922 126.32 98.6487 126.536 98.6911 126.699C98.8887 127.456 99.6348 127.9 100.387 127.708C101.085 127.53 101.574 126.77 101.377 126.013C101.32 125.796 101.264 125.58 101.221 125.418C101.024 124.66 100.277 124.216 99.5256 124.408C98.7736 124.6 98.2844 125.36 98.5358 126.104Z" fill="#1DABCA"/>
</g>
</svg>
