<svg width="80" height="80" viewBox="0 0 80 80" fill="none" xmlns="http://www.w3.org/2000/svg">
<g clip-path="url(#clip0_2_1332)">
<g clip-path="url(#clip1_2_1332)">
<path d="M67.6801 25.0952L63.9241 20.5383C63.4083 19.9127 63.0946 19.1559 63.0177 18.3496L62.4513 12.4714C62.1571 9.41716 59.7267 6.98676 56.6725 6.69257L50.7942 6.12677C49.988 6.04926 49.2311 5.73554 48.6055 5.22041L44.0487 1.46371C41.6811 -0.487577 38.2442 -0.487577 35.8767 1.46371L31.3198 5.22041C30.6948 5.73554 29.938 6.04926 29.1311 6.12677L23.2528 6.69257C20.1987 6.98676 17.7689 9.41716 17.4741 12.4714L16.9083 18.3496C16.8308 19.1559 16.517 19.9127 16.0019 20.5383L12.2452 25.0952C10.2939 27.4627 10.2939 30.8996 12.2452 33.2672L16.0019 37.824C16.517 38.4496 16.8308 39.2065 16.9083 40.0127L17.4741 45.891C17.7682 48.9452 20.1987 51.375 23.2528 51.6698L26.846 52.0159L18.309 72.4155C18.0777 72.971 18.1821 73.596 18.5818 74.0464C18.9816 74.4962 19.5889 74.6744 20.1663 74.5103L27.5729 72.4192C27.6052 72.41 27.6364 72.4241 27.651 72.4503L31.3601 79.1947C31.636 79.697 32.1517 79.9997 32.7194 79.9997C32.7462 79.9997 32.7731 79.9991 32.8005 79.9979C33.4005 79.9674 33.9193 79.6048 34.1567 79.0458L43.1698 57.5066C43.4755 57.3308 43.7697 57.1287 44.0493 56.8986L48.6061 53.1426C49.1829 52.6665 49.8732 52.3656 50.6099 52.2606L58.7733 71.7667L52.9964 70.1359C51.8977 69.8264 50.7472 70.308 50.1961 71.3072L47.3036 76.5665L43.4713 67.4082C43.218 66.8034 42.5234 66.519 41.9185 66.7717C41.3143 67.0243 41.0293 67.7195 41.2826 68.3238L45.7717 79.0519C46.0066 79.6048 46.5248 79.9674 47.1254 79.9979C47.1529 79.9991 47.1797 80.0004 47.2066 80.0004C47.7742 80.0004 48.29 79.697 48.5658 79.1947L52.2743 72.4516C52.2896 72.4241 52.3213 72.4113 52.3524 72.4192L59.7578 74.5103C60.3364 74.6738 60.9443 74.4962 61.3435 74.0464C61.7433 73.596 61.8476 72.9716 61.6157 72.4143L53.0794 52.0152L56.6725 51.6692C59.7267 51.375 62.1571 48.9452 62.4513 45.891L63.0177 40.0121C63.0946 39.2059 63.4083 38.4496 63.9241 37.824L67.6801 33.2672C69.632 30.8996 69.632 27.4627 67.6801 25.0952ZM32.6223 76.5665L29.7293 71.3059C29.1787 70.3074 28.027 69.8258 26.929 70.1359L21.1526 71.7661L29.3154 52.2606C30.0527 52.3656 30.743 52.6665 31.3198 53.1419L35.8767 56.8986C37.0608 57.8746 38.5116 58.3623 39.963 58.3623C40.0564 58.3623 40.1491 58.3598 40.2425 58.3555L32.6223 76.5665ZM65.8497 31.7584L62.0936 36.3152C61.2757 37.3064 60.7789 38.5064 60.6556 39.7851L60.0898 45.6633C59.9043 47.5896 58.3717 49.1222 56.4454 49.3077L51.2819 49.8052C51.2618 49.8064 51.241 49.8082 51.2209 49.8113L50.5672 49.8741C49.2879 49.9974 48.0879 50.4943 47.0967 51.3115L42.5399 55.0676C41.047 56.2987 38.879 56.2987 37.3861 55.0676L32.8292 51.3115C31.838 50.4943 30.6381 49.9968 29.3588 49.8741L28.702 49.8107C28.6837 49.8082 28.666 49.807 28.6477 49.8058L23.4805 49.3077C21.5542 49.1222 20.0217 47.5896 19.8361 45.6633L19.2703 39.7857C19.147 38.5064 18.6502 37.3064 17.8323 36.3152L14.0762 31.7584C12.8452 30.2649 12.8452 28.0969 14.0762 26.604L17.8323 22.0471C18.6502 21.0559 19.147 19.856 19.2703 18.5767L19.8361 12.6984C20.0217 10.7721 21.5542 9.23955 23.4805 9.05401L29.3588 8.48821C30.6381 8.36492 31.838 7.8681 32.8292 7.05084L37.3861 3.29475C38.1325 2.67952 39.0481 2.3713 39.963 2.3713C40.8779 2.3713 41.7934 2.67891 42.5399 3.29475L47.0967 7.05084C48.0879 7.8681 49.2879 8.36553 50.5672 8.48821L56.4454 9.05401C58.3717 9.23955 59.9043 10.7721 60.0898 12.6984L60.6556 18.5767C60.7789 19.856 61.2757 21.0559 62.0936 22.0471L65.8497 26.604C67.0802 28.0975 67.0802 30.2649 65.8497 31.7584Z" fill="white"/>
<path d="M39.9627 10.6494C39.1705 10.6494 38.3733 10.6995 37.5921 10.7996C36.9427 10.8826 36.4831 11.477 36.5661 12.1265C36.6491 12.7765 37.2442 13.2355 37.893 13.1531C38.5741 13.0658 39.2706 13.0218 39.9627 13.0218C48.8732 13.0218 56.1223 20.271 56.1223 29.1814C56.1223 38.0919 48.8726 45.3404 39.9627 45.3404C31.0522 45.3404 23.8031 38.0913 23.8031 29.1808C23.8031 22.8253 27.5506 17.0361 33.3502 14.4317C33.9477 14.1638 34.215 13.4613 33.9465 12.8638C33.6779 12.2656 32.9754 11.9989 32.3785 12.2674C25.7275 15.2539 21.4307 21.8927 21.4307 29.1808C21.4307 39.3999 29.7442 47.7129 39.9627 47.7129C50.1812 47.7129 58.4947 39.3999 58.4947 29.1808C58.4947 18.9624 50.1812 10.6494 39.9627 10.6494Z" fill="white"/>
<path d="M28.1812 27.8068C26.7671 29.221 26.7671 31.5226 28.1812 32.9368L33.3625 38.1187C34.0479 38.8035 34.9586 39.1807 35.9278 39.1807C36.8964 39.1807 37.8077 38.8035 38.4931 38.1187L49.8035 26.8077C51.2176 25.3929 51.2176 23.0919 49.8035 21.6771C48.3893 20.2629 46.0877 20.2629 44.6729 21.6771L35.9278 30.4228L33.3112 27.8068C31.897 26.3926 29.5954 26.3926 28.1812 27.8068ZM35.9278 33.2871C36.2421 33.2871 36.5436 33.162 36.7664 32.9392L46.3507 23.3549C46.8402 22.8654 47.6361 22.866 48.1256 23.3549C48.6151 23.8444 48.6151 24.6409 48.1256 25.1298L36.8152 36.4408C36.5784 36.6776 36.2629 36.8083 35.9278 36.8083C35.5921 36.8083 35.2772 36.6776 35.0403 36.4408L29.8585 31.2596C29.3696 30.7701 29.3696 29.9736 29.8585 29.4847C30.1032 29.2399 30.4249 29.1172 30.7465 29.1172C31.0676 29.1172 31.3892 29.2399 31.6334 29.4841L35.0886 32.9392C35.3113 33.162 35.6128 33.2871 35.9278 33.2871Z" fill="white"/>
</g>
</g>
<defs>
<clipPath id="clip0_2_1332">
<rect width="80" height="80" fill="white"/>
</clipPath>
<clipPath id="clip1_2_1332">
<rect width="80" height="80" fill="white"/>
</clipPath>
</defs>
</svg>
