<svg width="126" height="146" viewBox="0 0 126 146" fill="none" xmlns="http://www.w3.org/2000/svg">
<g opacity="0.2">
<path d="M86.1192 130.202L85.682 130.353C76.7283 133.387 67.9943 133.453 59.627 130.571C46.3906 125.992 34.7436 114.163 25.1524 95.4137C14.0208 73.6726 11.4325 52.9189 17.7485 36.9767C21.538 27.4113 28.4919 20.2751 36.7989 17.3949C46.1054 14.1682 55.3468 15.5482 68.5983 22.1671C70.2151 22.3823 76.9396 23.577 84.672 29.6411C98.9462 40.7717 105.565 59.6344 108.618 73.527C109.236 75.2876 115.74 93.6256 111.588 106.349C107.854 117.87 99.7354 125.481 86.1192 130.202ZM37.88 20.4758C30.5098 23.0312 24.298 29.4869 20.8279 38.1657C17.3799 46.9074 13.6918 65.7468 28.1209 93.8907C37.3003 111.865 48.2676 123.155 60.7028 127.448C68.3535 130.085 76.3747 129.983 84.5789 127.209L85.0161 127.058C97.8203 122.618 105.053 115.879 108.53 105.223C112.382 93.2385 105.58 74.651 105.513 74.4624L105.469 74.3367L105.425 74.2109C102.508 60.9058 96.2608 42.9017 82.876 32.3091C74.9303 26.0368 68.1105 25.3687 68.048 25.3904L67.754 25.3513L67.5005 25.2276C54.8627 18.9601 46.312 17.5523 37.88 20.4758Z" fill="white"/>
<path d="M97.0846 86.8193C94.5873 87.6853 92.0126 87.7322 89.4231 86.9381C81.8014 84.5755 78.8136 76.6578 75.9764 68.9698C74.657 65.4087 73.3157 61.7847 71.5043 58.8172C68.6788 54.1568 63.9768 51.1342 59.9104 48.5257C56.1195 46.1036 52.604 43.8681 50.9762 40.6254C49.0875 36.8387 48.9435 33.4341 50.5663 30.4742C54.524 23.3911 67.5256 22.1255 68.0692 22.078L68.4005 25.4177C65.0767 25.7243 55.9794 27.5395 53.4645 32.1482C52.3888 34.0723 52.5767 36.4043 53.9032 39.1874C55.0974 41.5934 58.1463 43.4972 61.6213 45.8173C66.0478 48.6534 71.0252 51.8626 74.3026 57.2123C76.2646 60.4095 77.6722 64.2221 79.0357 67.9089C81.7185 75.1569 84.2469 81.9648 90.2892 83.8177C93.1946 84.7137 95.9491 84.1815 98.5344 82.3684C102.691 79.4463 105.151 74.0812 105.242 72.146L108.533 72.3442C108.398 75.3522 105.41 81.6058 100.467 85.0824C99.391 85.8081 98.2709 86.408 97.0846 86.8193Z" fill="white"/>
<path d="M50.3812 37.9841C49.6185 37.6119 31.3785 28.8681 18.5744 43.861L16.0576 41.6911C30.5714 24.7596 51.6081 34.8683 51.7998 35.0141L50.3812 37.9841Z" fill="white"/>
<path d="M84.7361 130.299L82.3304 128.031C97.0411 112.285 88.5056 86.5553 88.4174 86.3039L91.5384 85.2215C91.6266 85.4729 93.923 92.2191 94.2701 101.192C94.6691 113.108 91.4141 123.189 84.7361 130.299Z" fill="white"/>
<path d="M92.5588 110.576C91.1865 111.052 84.5487 113.073 75.7748 111.397C66.9385 109.742 54.2193 103.797 43.5349 85.0979C35.3537 70.7441 29.8796 49.7437 39.0363 33.9539L41.8694 35.6485C30.9884 54.5026 43.6955 78.7711 46.3932 83.4719C54.4019 97.5332 64.4427 105.816 76.156 108.094C84.9519 109.833 91.4355 107.372 91.4979 107.35L92.7239 110.448C92.746 110.511 92.6835 110.532 92.5588 110.576Z" fill="white"/>
<path d="M41.2573 80.9831C34.5771 69.7425 30.8054 66.3901 26.6155 67.8427C21.5502 69.5987 22.6165 81.2322 24.6046 86.8976L21.4778 87.9816C19.4897 82.3162 17.1938 67.5787 25.511 64.6952C33.0778 62.072 38.6314 70.1022 44.1228 79.3543L41.2573 80.9831Z" fill="white"/>
<path d="M56.4121 114.48C54.1613 115.261 51.7079 114.065 50.9131 111.8C50.1183 109.535 51.2911 107.082 53.5419 106.302C55.7926 105.521 58.246 106.717 59.0408 108.982C59.8357 111.247 58.6628 113.7 56.4121 114.48ZM54.6458 109.447C54.1456 109.621 53.8625 110.213 54.0392 110.716C54.2158 111.219 54.808 111.508 55.3082 111.335C55.8083 111.161 56.0914 110.569 55.9148 110.066C55.7161 109.5 55.2085 109.252 54.6458 109.447Z" fill="white"/>
<path d="M73.9697 123.27C71.6564 124.072 69.1184 122.835 68.3015 120.507C67.4846 118.179 68.6979 115.642 71.0112 114.84C73.3244 114.038 75.8624 115.275 76.6793 117.603C77.5183 119.993 76.283 122.468 73.9697 123.27ZM72.1372 118.048C71.5745 118.243 71.2289 118.857 71.4497 119.486C71.6484 120.052 72.2626 120.404 72.8878 120.187C73.4505 119.992 73.7962 119.378 73.5754 118.749C73.3767 118.183 72.6999 117.853 72.1372 118.048Z" fill="white"/>
<path d="M43.6111 101.781C43.1735 101.933 42.7138 102.021 42.232 102.047C41.0992 102.017 39.981 101.628 39.1901 100.773C38.3992 99.9182 37.8989 98.892 37.8987 97.6925C37.8873 95.8617 39.0529 94.1874 40.7409 93.6022C41.1786 93.4505 41.6383 93.3617 42.1201 93.3359C44.5108 93.3539 46.4309 95.2286 46.4939 97.606C46.5494 99.5626 45.3617 101.174 43.6111 101.781ZM41.8449 96.7479C41.4697 96.8779 41.1829 97.2596 41.1904 97.6804C41.2162 97.9537 41.3045 98.2054 41.4957 98.3507C41.7091 98.559 41.9408 98.6199 42.2351 98.659C42.8015 98.6743 43.1912 98.1864 43.2242 97.681C43.2352 97.1127 42.746 96.7177 42.2421 96.6807C42.117 96.724 41.9699 96.7045 41.8449 96.7479Z" fill="white"/>
<path d="M34.3563 87.3518C33.9186 87.5035 33.4589 87.5923 32.9771 87.6181C31.8443 87.5875 30.7261 87.1989 29.9352 86.344C29.0818 85.5108 28.644 84.463 28.6438 83.2634C28.6324 81.4326 29.798 79.7584 31.4861 79.1732C31.9237 79.0214 32.3834 78.9326 32.8652 78.9067C35.2559 78.9247 37.1761 80.7995 37.239 83.1769C37.232 85.1552 36.0443 86.7666 34.3563 87.3518ZM32.6121 82.3817C32.2369 82.5117 31.9501 82.8934 31.9576 83.3142C31.9834 83.5875 32.0717 83.8392 32.2629 83.9846C32.4763 84.1929 32.708 84.2537 33.0023 84.2928C33.5687 84.3082 33.9584 83.8202 33.9914 83.3148C34.0024 82.7465 33.5132 82.3515 33.0093 82.3145C32.7996 82.3166 32.6746 82.36 32.6121 82.3817Z" fill="white"/>
</g>
</svg>
