<svg width="192" height="135" viewBox="0 0 192 135" fill="none" xmlns="http://www.w3.org/2000/svg">
<g opacity="0.43">
<path d="M137.779 134.165C137.6 134.165 137.422 134.12 137.244 133.986C131.936 130.151 116.503 121.23 95.9415 114.852C89.7863 112.934 84.3894 111.507 79.6169 110.258C64.0506 106.154 54.684 103.701 44.693 90.8556C43.7564 89.6513 42.4183 86.9306 41.0802 84.0314C39.8759 81.5337 38.6271 78.9467 37.9134 78.01C32.2043 70.606 26.7182 65.6551 18.6897 65.6551C15.6567 65.6551 12.3115 66.3242 8.52027 67.7514C8.11885 67.8852 7.67282 67.7514 7.44981 67.3946C7.2268 67.0378 7.316 66.5471 7.62822 66.2795C10.5274 63.6926 78.591 2.89916 81.1334 0.936645C82.2931 0.0891944 84.88 0 85.9505 0C88.0022 0 106.066 0.535232 111.731 18.7331C117.44 36.931 190.008 61.5962 190.722 61.8639C191.034 61.9531 191.257 62.2207 191.302 62.5329C191.391 62.8451 191.257 63.1573 191.079 63.3804C190.945 63.5142 177.074 77.2518 165.388 95.3605C153.657 113.603 138.626 133.763 138.492 133.942C138.314 134.031 138.046 134.165 137.779 134.165ZM18.6897 63.8264C27.4318 63.8264 33.2747 69.0449 39.2961 76.895C40.1436 78.01 41.3924 80.5524 42.6859 83.2731C43.9794 85.9493 45.2729 88.67 46.1203 89.7405C55.7545 102.095 64.898 104.504 80.1075 108.518C84.88 109.767 90.3215 111.194 96.5213 113.112C119.358 120.204 134.211 129.749 137.6 132.024C140.321 128.322 153.434 110.481 163.916 94.2008C173.862 78.7683 185.414 66.4579 188.849 62.9343C178.456 59.3661 115.656 36.9756 110.081 19.09C104.773 2.14095 87.913 1.65028 85.9951 1.65028C83.8096 1.65028 82.5607 2.00712 82.2485 2.23013C80.0629 3.88043 25.6477 52.4527 11.9547 64.7184C14.3186 64.1386 16.5933 63.8264 18.6897 63.8264Z" fill="white"/>
<path d="M22.8824 97.0999C19.8941 97.0999 16.5489 96.4309 12.8468 95.1374C8.47578 93.6209 1.56236 88.893 0.224277 82.158C-0.801584 76.8949 1.69617 71.5426 7.62832 66.2349L8.8326 67.5729C3.39107 72.4346 1.07173 77.2517 2.00838 81.8458C3.16805 87.7779 9.68005 92.149 13.4713 93.4871C20.8753 96.1186 26.7629 96.0294 30.9109 93.0856C37.6905 88.3132 37.7797 77.6085 37.7797 77.6085H39.5638C39.5638 77.6085 39.5638 80.4631 38.6272 83.9867C37.3783 88.67 35.1036 92.2828 31.9368 94.513C29.3944 96.2525 26.3614 97.0999 22.8824 97.0999Z" fill="white"/>
<path d="M21.723 93.1303C17.3965 93.1303 12.624 91.4354 8.60979 88.4471C4.41714 85.3249 2.81143 80.9984 4.23872 76.6719C5.84441 71.8103 10.9737 68.2866 16.3706 68.2866H16.5491C21.1877 68.3758 29.6176 70.6506 32.606 76.4489C34.5239 80.1509 33.7657 84.4774 30.4205 89.2499C28.681 91.7476 25.6034 93.1303 21.723 93.1303ZM16.3706 70.0707C11.6874 70.0707 7.31631 73.1037 5.93363 77.2517C4.72935 80.82 6.11203 84.3882 9.68025 87.0197C13.3377 89.7405 17.7533 91.3462 21.723 91.3462C25.0236 91.3462 27.5659 90.2312 28.9932 88.224C31.937 84.0314 32.6506 80.3293 31.0449 77.2517C28.5918 72.3901 21.0985 70.1599 16.5491 70.0707H16.3706Z" fill="white"/>
<path d="M19.7604 87.6442C19.2251 87.6442 18.6453 87.5996 18.1101 87.5103C16.0137 87.1535 14.0066 85.9939 12.6239 84.3436C11.1967 82.6487 10.5276 80.6416 10.8398 78.7682C11.4197 75.5122 14.5865 73.1483 18.4223 73.1483C18.9575 73.1483 19.5373 73.1929 20.0726 73.2821C22.1689 73.639 24.176 74.7986 25.5587 76.4489C26.986 78.1438 27.655 80.1509 27.3428 82.0243C26.763 85.2802 23.5516 87.6442 19.7604 87.6442ZM18.4669 74.977C15.5231 74.977 13.07 76.7165 12.6239 79.1251C12.4009 80.4186 12.8915 81.935 14.0066 83.2285C15.1217 84.5666 16.772 85.5033 18.4223 85.7709C18.8683 85.8601 19.3143 85.9047 19.7604 85.9047C22.7041 85.9047 25.1573 84.1652 25.6033 81.7566C25.8263 80.4632 25.3357 78.9466 24.2206 77.6532C23.1056 76.3151 21.4553 75.3785 19.805 75.1108C19.3143 75.0216 18.8683 74.977 18.4669 74.977Z" fill="white"/>
<path d="M21.1874 80.9538C21.1874 81.935 20.3845 82.7379 19.4032 82.7379C18.422 82.7379 17.6191 81.935 17.6191 80.9538C17.6191 79.9725 18.422 79.1697 19.4032 79.1697C20.3845 79.2143 21.1874 79.9725 21.1874 80.9538Z" fill="white"/>
</g>
</svg>
