<svg width="115" height="122" viewBox="0 0 115 122" fill="none" xmlns="http://www.w3.org/2000/svg">
<g opacity="0.2">
<path d="M45.7241 109.589C33.6923 106.287 24.3317 99.603 18.5914 90.2624C12.2359 79.8257 10.6737 66.2428 14.0405 50.8836C15.6646 43.6224 18.357 38.103 22.2995 34.0858C28.1866 28.0526 36.8049 25.4346 47.9254 26.2271L47.7239 29.0111C37.4505 28.2774 29.5942 30.6409 24.2918 36.0234C19.544 40.8626 17.7325 47.1453 16.7743 51.4022C10.5782 79.3708 21.6783 100.034 46.437 106.829C46.8113 106.932 47.1856 107.035 47.5599 107.138C67.2368 112.133 81.7187 103.36 95.8225 77.7933C101.735 67.1313 100.336 57.7075 98.1658 51.6647C95.0842 43.1118 88.7547 36.9124 84.1307 35.1217C77.8791 32.7683 71.1254 34.2755 71.0034 34.3L70.3812 31.5795C70.6936 31.4914 78.0572 29.8619 85.096 32.4893C90.1478 34.3974 97.1958 40.9099 100.756 50.6371C103.111 57.2523 104.621 67.5178 98.224 79.0899C91.3575 91.5183 84.7089 99.6604 77.3378 104.823C68.331 111.101 58.3808 112.715 46.8236 109.775C46.4727 109.795 46.0984 109.692 45.7241 109.589Z" fill="white"/>
<path d="M58.9759 47.6797C57.5289 47.2815 56.2258 46.574 55.3109 45.5083C51.7819 41.3978 48.1481 40.9791 48.1481 40.9791L48.3593 38.77C48.5351 38.7602 52.8957 39.2626 57.0396 44.0656C60.3458 47.9404 71.2879 44.9056 73.0035 43.9243L74.0831 45.8492C72.9851 46.4772 69.4427 47.5952 65.8128 47.9915C63.673 48.2165 61.1731 48.2844 58.9759 47.6797Z" fill="white"/>
<path d="M57.6639 47.459C57.5037 47.415 57.3969 47.3857 57.2668 47.2342C56.8463 46.8872 56.7293 46.2764 56.9861 45.7682L70.8943 22.9094C71.1361 22.4549 71.6532 22.2497 72.1337 22.3817L78.9141 24.2437C79.2878 24.3463 79.6015 24.6639 79.6717 25.0304C79.7952 25.4116 79.6752 25.8416 79.3717 26.1055L58.6831 47.1023C58.4179 47.4346 58.0376 47.5616 57.6639 47.459ZM72.3196 24.8054L63.8189 38.7904L76.4839 25.949L72.3196 24.8054Z" fill="white"/>
<path d="M56.3484 40.6701C46.8896 38.0737 46.4603 23.536 46.4532 21.9125C46.4051 16.1082 45.7669 7.88323 45.7969 7.77565L45.5708 4.87598L47.6686 6.84164C49.1234 8.22547 50.0637 8.77316 51.0424 9.38928C52.7091 10.4259 54.2306 11.3648 57.9789 15.8684C64.0572 23.1543 62.7235 39.0613 62.6502 39.7361L62.5853 40.5869L61.732 40.7581C59.7283 41.1346 57.9515 41.1102 56.3484 40.6701ZM48.1637 10.2206C48.3748 13.1742 48.6248 18.0494 48.6491 21.8782C48.7105 27.2229 50.4829 36.7436 56.949 38.5185C58.0178 38.8119 59.1617 38.8363 60.4574 38.7287C60.6637 35.3107 60.9913 23.0076 56.2392 17.3598C52.7515 13.1594 51.337 12.2499 49.8155 11.3111C49.3261 11.003 48.7833 10.6803 48.1637 10.2206Z" fill="white"/>
<path d="M63.8603 32.9578C62.3609 32.5458 61.1273 31.8006 60.9281 31.6879L62.1102 29.5168C62.86 29.7227 64.8216 30.9582 66.3644 30.8016L66.5662 33.1787C65.6727 33.2815 64.7172 33.1932 63.8603 32.9578Z" fill="white"/>
</g>
</svg>
