<svg width="194" height="217" viewBox="0 0 194 217" fill="none" xmlns="http://www.w3.org/2000/svg">
<g opacity="0.2">
<path d="M58.9533 58.6075C57.1248 58.1217 55.0603 57.1602 52.7596 55.7231C37.7533 46.3219 39.3706 37.3 40.1445 32.9175C41.4113 25.8672 43.3453 22.2517 46.8773 15.7573C47.6223 14.3494 48.4986 12.7929 49.4327 11.0223C52.4243 5.34789 55.5778 4.80928 57.6614 5.36288C57.959 5.44197 58.2876 5.57519 58.5737 5.69708C59.5055 6.12817 60.7737 6.83216 61.1958 8.13724C61.7496 9.79848 60.7614 11.6006 59.1401 14.5651C57.9627 16.7298 56.5074 19.4172 54.9987 23.1457C48.0958 40.2606 57.6184 44.9931 62.1999 47.2657C65.4167 48.8544 67.2244 52.9594 66.0824 56.0053C65.2068 58.5714 62.4827 59.5452 58.9533 58.6075ZM57.114 7.55745C55.158 7.03773 53.2458 8.54844 51.3776 12.0896C50.4434 13.8602 49.5981 15.4709 48.8221 16.8247C45.3904 23.1163 43.5453 26.5718 42.3169 33.3112C41.5583 37.4684 40.1914 45.2262 53.9527 53.8377C56.0522 55.1756 57.9158 56.0378 59.5316 56.4671C60.9349 56.8399 63.3545 57.1616 64.0567 55.2376C64.7241 53.4421 63.6631 50.4532 61.2505 49.2616C53.8119 45.5876 46.151 39.1933 52.9845 22.3352C54.5164 18.5211 56.072 15.631 57.2263 13.5519C58.4036 11.3871 59.3687 9.67058 59.086 8.86137C58.9544 8.50522 58.471 8.1015 57.6127 7.73582C57.4967 7.65911 57.2841 7.60264 57.114 7.55745Z" fill="white"/>
<path d="M69.9948 57.355C69.8673 57.3211 69.7398 57.2872 69.6239 57.2105L70.5301 55.2042C71.5886 55.6691 76.5266 53.4046 79.558 47.744C82.3658 42.5744 82.1225 32.0074 78.9767 18.6969C77.3844 11.9448 75.8536 10.0244 73.8021 9.02038C72.5542 8.41347 70.3957 8.9862 70.0562 9.4004C69.7438 10.0511 69.8948 10.504 71.0551 12.7845C72.1419 14.9996 73.9791 18.6524 76.0463 25.1639C80.3546 38.5542 72.0546 48.5469 71.715 48.9611L70.0456 47.5542C70.1111 47.4799 77.8863 38.0815 73.9921 25.8561C71.9753 19.4956 70.2619 16.0592 69.1016 13.7787C67.9219 11.4013 67.276 10.083 68.1012 8.37623C68.9689 6.68073 72.6258 5.95603 74.7932 7.03669C77.8377 8.57981 79.5082 11.5004 81.0811 18.1557C82.9872 26.2753 85.6011 41.0496 81.4705 48.7569C78.3272 54.6629 72.7992 58.1005 69.9948 57.355Z" fill="white"/>
<path d="M61.3951 136.142C60.6314 135.939 59.9678 135.533 59.3618 134.913C58.2231 133.74 57.9745 127.578 58.2543 104.783C58.3069 99.0227 58.3756 94.0454 58.2543 92.1341C57.6266 80.4636 60.2442 58.6122 60.359 57.6803L62.5187 57.9345C62.5035 58.1596 59.79 80.5355 60.4214 92.0236C60.5312 93.9777 60.451 98.9977 60.3869 104.801C60.2836 114.123 60.095 131.351 60.9491 133.411C61.4933 133.923 62.0758 134.124 62.739 134.025C63.969 133.849 65.198 132.663 66.1951 130.821C67.2267 128.85 66.778 118.877 66.338 110.052C66.0156 103.321 65.6775 96.3103 65.8966 91.2815C66.6086 72.9557 68.2743 60.2002 69.7602 48.9549C69.9327 47.8093 70.0512 46.695 70.2122 45.5921C70.932 40.055 70.1392 37.5983 69.1671 37.1562C68.4804 36.8359 67.4667 37.3909 66.8888 38.0162C64.8702 40.2744 64.1549 46.6376 64.0452 48.8999L61.8394 48.8168C61.8468 48.4521 62.2862 39.9072 65.2332 36.5671C66.358 35.2625 68.4126 34.3888 70.0715 35.1513C72.417 36.2341 73.1762 39.8276 72.4143 45.8576C72.2534 46.9605 72.1348 48.0747 71.9624 49.2204C70.488 60.4229 68.7914 73.1244 68.1139 91.3219C67.918 96.2652 68.2367 103.179 68.559 109.91C69.1254 121.977 69.3791 129.469 68.1473 131.845C66.8269 134.38 65.0044 135.912 63.0572 136.218C62.4904 136.296 61.9467 136.289 61.3951 136.142Z" fill="white"/>
<path d="M127.701 147.236L126.813 146.817C122.47 144.699 119.974 142.476 119.224 140.03C118.38 137.421 119.698 135.067 120.762 133.149C120.939 132.83 121.105 132.553 121.24 132.222C121.918 130.889 126.174 124.227 131.081 116.501C135.988 108.774 141.104 100.782 142.499 98.3106C145.278 93.4106 152.031 82.0487 152.108 81.9317L153.985 83.0727C153.907 83.1897 147.208 94.5202 144.43 99.4202C142.969 101.966 137.896 109.969 132.935 117.727C128.448 124.741 123.837 132.042 123.194 133.246C123.016 133.566 122.839 133.885 122.662 134.205C121.687 135.963 120.789 137.604 121.319 139.349C121.83 140.998 123.738 142.698 126.927 144.371C128.747 141.508 134.617 132.067 137.48 126.18C139.396 122.288 141.248 117.784 142.866 113.813C144.01 111.091 145.077 108.487 145.983 106.481C147.536 103.089 158.676 84.9165 159.119 84.1174L160.995 85.2585C160.895 85.4611 149.447 104.102 147.971 107.377C147.066 109.383 146.01 111.944 144.878 114.623C143.206 118.626 141.353 123.13 139.415 127.107C135.962 134.167 128.53 145.852 128.21 146.363L127.701 147.236Z" fill="white"/>
<path d="M158.06 85.7696C152.514 84.2948 147.131 81.2052 142.037 76.5348C134.196 69.3379 130.64 63.8794 131.603 60.3132C132.113 58.4227 133.663 57.5916 134.504 57.3548C135.527 57.1204 136.524 57.1552 137.462 57.4047C139.851 58.04 141.516 60.0025 143.297 62.0419C144.795 63.7757 146.366 65.5751 148.352 66.5177C149.287 66.9505 150.501 67.3654 151.951 67.7511C157.965 69.3507 166.669 69.9618 170.388 70.0757C171.341 70.0991 172.346 70.2741 173.455 70.5691C177.123 71.5447 181.393 74.0159 182.144 77.1627C182.389 78.2871 182.344 79.9789 180.477 81.6466C178.412 83.5381 175.249 85.0917 171.811 85.9732C167.489 87.0802 162.709 87.0061 158.06 85.7696ZM135.018 59.5176C134.866 59.5695 133.959 59.8809 133.735 60.8804C133.442 62.1378 133.782 65.9583 143.528 74.9052C148.327 79.313 153.435 82.2373 158.639 83.6213C168.706 86.2986 176.418 82.4553 179.084 80.0328C180.35 78.8961 180.133 78.0093 180.074 77.7174C179.662 75.8579 176.5 73.6816 172.96 72.74C172.022 72.4905 171.145 72.3495 170.374 72.3285C166.249 72.1984 157.63 71.61 151.402 69.9537C149.824 69.534 148.482 69.085 147.431 68.5752C145.042 67.4333 143.218 65.3825 141.658 63.5401C140.087 61.7406 138.631 60.0181 136.882 59.553C136.328 59.4055 135.696 59.3756 135.018 59.5176Z" fill="white"/>
<path d="M121.173 133.106C121.142 133.052 118.647 128.056 105.57 125.497L106.021 123.313C120.371 126.073 123.095 131.913 123.208 132.174L121.173 133.106Z" fill="white"/>
<path d="M68.8316 128.971L67.908 126.978C78.8148 121.783 90.364 120.806 90.825 120.79L90.9623 122.988C90.8654 123.008 79.3278 123.943 68.8316 128.971Z" fill="white"/>
<path d="M31.9079 165.426L29.8174 164.733C36.9722 142.966 58.39 131.641 59.2859 131.191L60.3033 133.159C60.0561 133.23 38.735 144.535 31.9079 165.426Z" fill="white"/>
<path d="M69.4167 191.578C57.2278 188.34 47.731 184.943 39.7891 177.821L41.2909 176.151C50.8105 184.704 62.8752 187.725 79.5776 191.84C85.7379 193.385 92.7195 195.102 100.472 197.345C111.91 200.66 118.999 200.796 123.421 197.786C127.614 194.946 129.652 189.095 132.192 181.723C133.035 179.28 133.912 176.709 134.964 173.999C142.308 154.936 128.809 144.545 128.239 144.118L129.54 142.348C129.687 142.479 133.485 145.327 136.309 150.768C138.927 155.786 141.179 164.017 136.983 174.811C135.931 177.521 135.065 180.05 134.222 182.493C128.894 197.815 125.673 207.029 99.7843 199.554C92.1167 197.333 85.1351 195.616 78.9748 194.071C75.6079 193.177 72.4426 192.382 69.4167 191.578Z" fill="white"/>
<path d="M89.178 195.619C89.5294 188.412 100.35 182.976 111.809 177.204C115.874 175.161 120.047 173.056 123.492 170.941C130.967 166.406 137.482 160.193 137.548 160.119L139.077 161.719C138.825 161.974 132.322 168.144 124.619 172.847C121.077 174.982 116.85 177.119 112.774 179.205C102.417 184.443 91.6619 189.805 91.3793 195.745L89.178 195.619Z" fill="white"/>
<path d="M101.284 198.737L99.1789 198.086C102.31 187.851 113.964 181.533 124.1 179.816C130.885 178.68 135.466 172.366 135.52 172.334L137.313 173.637C137.092 173.946 132.148 180.76 124.461 182.025C114.991 183.642 104.118 189.433 101.284 198.737Z" fill="white"/>
<path d="M108.362 200.835L106.546 199.618C110.686 193.416 114.345 191.357 121.579 188.732C127.648 186.533 132.358 181.768 132.381 181.682L133.976 183.208C133.779 183.431 128.872 188.419 122.296 190.806C115.116 193.399 112.127 195.176 108.362 200.835Z" fill="white"/>
<path d="M102.047 126.963C101.876 126.918 101.717 126.83 101.57 126.699C101.245 126.383 101.148 125.897 101.306 125.48C101.341 125.351 104.72 116.735 100.422 111.686C99.8369 110.979 99.0854 110.55 98.1907 110.312C94.0581 109.215 87.4269 112.969 85.2322 114.5C84.787 114.795 84.2526 114.745 83.8419 114.407C83.4854 114.036 83.4115 113.465 83.6668 113.027C87.6821 106.28 95.8608 100.179 103.061 102.092C104.424 102.454 105.749 103.128 106.931 103.993C114.85 110.003 113.227 121.246 113.184 121.741C113.123 122.138 112.86 122.436 112.546 122.582L102.809 126.844C102.538 127.002 102.26 127.02 102.047 126.963ZM98.7702 108.168C100.091 108.519 101.222 109.233 102.09 110.245C105.772 114.532 104.962 120.568 104.113 123.881L111.008 120.841C111.215 118.552 111.45 110.249 105.534 105.782C104.542 105.059 103.504 104.508 102.439 104.225C97.9227 103.025 92.596 105.839 88.699 109.951C91.7148 108.592 95.5749 107.319 98.7702 108.168Z" fill="white"/>
<path d="M98.529 126.176C85.1347 122.614 83.5378 114.133 83.5026 113.755L85.6657 113.364C85.7551 113.71 87.4373 122.213 102.556 124.807L102.147 127C100.844 126.746 99.6381 126.471 98.529 126.176Z" fill="white"/>
<path d="M95.5254 123.756L93.3652 123.44L90.5368 142.39L92.697 142.706L95.5254 123.756Z" fill="white"/>
<path d="M101.972 125.827L99.8208 125.438L96.4302 143.89L98.5817 144.28L101.972 125.827Z" fill="white"/>
<path d="M89.8265 161.849C85.5679 160.718 81.8231 158.024 79.6687 154.511C77.4524 150.891 76.9 146.518 78.1281 141.974C81.1288 130.873 92.6916 131.83 92.831 131.822L92.6039 134.012C92.1975 133.996 82.7715 133.239 80.269 142.497C79.1915 146.483 79.639 150.231 81.5454 153.31C83.5757 156.606 87.2391 159.095 91.3543 159.912C98.2414 161.281 104.951 157.735 107.003 151.664C110.538 141.118 104.636 136.611 99.0648 134.763L99.7719 132.654C112.699 137.006 110.581 147.883 109.097 152.358C106.714 159.489 98.8661 163.698 90.9453 162.1C90.5505 162.041 90.2098 161.951 89.8265 161.849Z" fill="white"/>
<path d="M102.659 204.578C100.353 203.962 98.3813 203.297 97.135 202.826C92.1498 200.94 87.6777 199.699 82.0331 198.054C80.1658 197.509 78.1705 196.93 75.9616 196.294C72.7394 195.341 69.7777 194.781 66.591 194.207C61.1063 193.158 55.4393 192.106 48.6325 188.995C38.4125 184.28 36.52 182.296 36.2479 181.946L37.1201 181.256L37.9612 180.51C38.035 180.576 39.7372 182.416 49.596 186.943C56.1582 189.943 61.6856 191.003 67.0422 192.018C70.1319 192.612 73.3186 193.186 76.6262 194.161C78.8351 194.798 80.8305 195.377 82.6978 195.921C88.3966 197.536 92.8998 198.831 97.9704 200.739C103.957 202.985 116.616 205.949 120.023 202.979C120.504 202.553 121.065 201.826 120.714 200.069L122.902 199.591C123.46 202.28 122.453 203.813 121.492 204.665C117.91 207.773 109.022 206.277 102.659 204.578Z" fill="white"/>
<path d="M27.7227 185.203C26.4027 184.853 25.0128 184.254 23.6499 183.386C19.0306 180.552 18.5584 174.363 20.4793 169.958C22.1644 166.088 26.0908 162.537 32.2227 164.166C33.3724 164.471 34.561 164.97 35.7574 165.61C39.4937 167.658 41.5041 170.351 41.6842 173.569C41.8251 176.087 40.8047 178.342 39.9348 180.04C38.3537 183.02 33.8546 186.832 27.7227 185.203ZM31.6434 166.309C25.6819 164.725 23.1457 169.38 22.5157 170.866C20.4596 175.603 22.1807 179.873 24.8447 181.499C26.0179 182.224 27.1948 182.766 28.302 183.06C33.7526 184.508 37.0749 180.659 37.9216 179.046C38.7024 177.508 39.5103 175.701 39.4007 173.743C39.2792 171.322 37.6523 169.236 34.6361 167.563C33.5985 167.011 32.6228 166.569 31.6434 166.309Z" fill="white"/>
</g>
</svg>
