<svg width="156" height="134" viewBox="0 0 156 134" fill="none" xmlns="http://www.w3.org/2000/svg">
<g opacity="0.2">
<path d="M102.017 123.869C99.4695 123.869 96.9218 123.505 94.4347 122.717L16.1822 98.9378C9.69152 96.9966 4.89932 92.8717 3.01884 87.7155C1.44166 83.4693 2.04826 78.859 4.65668 74.7948L47.8472 8.00722C51.0622 3.03304 57.9169 0 65.7421 0C68.7145 0 71.6262 0.424624 74.4166 1.33454L139.991 22.3232C145.814 24.2037 150.303 27.8433 152.426 32.3929C153.882 35.6079 154.004 38.8836 152.73 41.9166C152.548 42.4019 131.498 96.026 123.188 111.859C119.366 119.138 111.056 123.869 102.017 123.869ZM65.7421 3.03304C59.0088 3.03304 53.0033 5.64145 50.3949 9.64507L7.26509 76.4933C5.14196 79.7083 4.71734 83.3479 5.93055 86.6843C7.50774 90.9305 11.572 94.3275 17.0921 96.026L95.3446 119.805C97.5284 120.472 99.7728 120.776 102.017 120.776C109.842 120.776 117.243 116.651 120.519 110.463C128.708 94.7522 149.757 41.31 149.939 40.7641C150.91 38.5196 150.789 36.0325 149.697 33.6061C147.998 29.9058 144.055 26.7514 139.081 25.1742L73.446 4.18559C71.0196 3.397 68.4112 3.03304 65.7421 3.03304Z" fill="white"/>
<path d="M104.383 133.939C102.199 133.939 97.8314 133.332 88.4897 131.027C79.5119 128.783 67.8043 125.386 55.5508 121.443C34.1982 114.649 7.50749 105.065 2.65463 100.454C-2.92617 95.1162 1.98736 83.4086 2.23 82.9233L5.0204 84.1366C3.80718 86.9876 1.38075 95.1162 4.77776 98.3312C8.29608 101.668 29.2241 109.917 55.7328 118.41C83.4548 127.266 102.563 131.755 105.171 130.906C105.899 130.239 106.627 125.993 106.749 121.807L109.782 121.868C109.66 125.568 109.114 131.998 106.749 133.454C106.324 133.696 105.899 133.939 104.383 133.939Z" fill="white"/>
<path d="M105.536 134L105.05 131.027C105.172 131.027 118.76 128.601 124.947 115.923C136.655 91.901 149.211 59.0228 152.912 42.7657C153.579 39.7934 150.849 35.1225 149.697 33.5453L152.123 31.7861C152.608 32.4534 156.915 38.5801 155.823 43.433C152.062 59.9327 139.445 93.0535 127.616 117.257C120.761 131.27 106.142 133.878 105.536 134Z" fill="white"/>
<path d="M102.927 111.009C92.9184 111.009 72.051 106.338 54.2774 100.151C25.5242 90.1419 18.4875 81.7707 17.699 76.4932C16.1218 66.3629 46.7555 27.1153 50.2131 22.6871C56.3399 14.1946 61.4354 10.5549 67.1375 10.5549C69.6853 10.5549 72.2937 11.2829 75.448 12.7994C77.0859 13.588 78.0565 14.6799 78.3598 16.1357C79.1483 19.5934 75.8727 23.597 72.051 28.2072C69.1393 31.7862 66.1063 35.4865 65.621 38.3376C65.3783 39.9148 65.9243 41.4919 67.2588 43.0691C74.4168 51.501 99.2877 56.7785 107.902 56.7785C108.326 56.7785 108.69 56.7785 109.054 56.7178C117.971 55.9899 120.337 45.0709 122.036 37.1244C122.399 35.5472 122.703 34.0913 123.006 32.8781C123.855 29.8451 126.342 28.1466 129.861 28.1466C134.532 28.1466 140.658 31.3009 141.568 35.3045C142.782 40.582 137.261 59.3869 131.135 74.4307C119.67 102.759 111.359 109.068 107.416 110.342C106.385 110.888 104.929 111.009 102.927 111.009ZM67.1982 13.6486C62.5879 13.6486 58.2204 16.9243 52.7002 24.5676C39.2335 41.6133 19.7008 69.3959 20.732 76.0686C21.7026 82.1347 34.6233 90.1419 55.3087 97.2999C72.779 103.366 93.2216 107.976 102.927 107.976C104.929 107.976 106.021 107.794 106.567 107.612C112.33 105.732 120.458 92.9929 128.405 73.3995C135.624 55.6259 139.506 39.7328 138.657 36.0931C138.171 34.0307 133.743 31.2403 129.861 31.2403C127.738 31.2403 126.403 32.0895 125.918 33.788C125.615 34.8799 125.311 36.3358 125.008 37.8523C123.188 46.2235 120.519 58.9016 109.297 59.8722C108.872 59.9328 108.448 59.9328 107.902 59.9328C98.6205 59.9328 72.8396 54.352 64.9537 45.1316C63.0126 42.8265 62.224 40.4 62.5879 37.913C63.1946 34.2733 66.4702 30.2697 69.6853 26.3267C72.5363 22.8084 75.812 18.8655 75.3874 16.8637C75.3267 16.6817 75.2054 16.1357 74.1135 15.5898C71.4444 14.2552 69.2606 13.6486 67.1982 13.6486Z" fill="white"/>
<path d="M104.383 53.1386C95.102 53.1386 72.1722 47.0726 72.0509 39.1867C71.8689 30.3302 79.2089 23.1116 86.1242 20.1998C88.7933 19.0473 92.069 18.4407 95.5873 18.4407C99.1663 18.4407 102.988 19.0473 106.567 20.2605C113.604 22.6263 117.061 27.6005 117.061 35.4864C117.061 43.1296 115.909 48.5891 110.025 51.9861C108.751 52.714 106.87 53.1386 104.383 53.1386ZM95.5267 21.413C92.433 21.413 89.5212 21.8983 87.2161 22.9296C78.663 26.5086 74.902 33.9092 75.0233 39.126C75.084 43.3116 93.1609 50.1056 104.322 50.1056C106.87 50.1056 107.962 49.6203 108.387 49.3777C113.058 46.6479 113.907 42.4017 113.907 35.4864C113.907 28.8743 111.298 25.0527 105.475 23.1116C102.321 22.0197 98.863 21.413 95.5267 21.413Z" fill="white"/>
<path d="M85.9176 22.1011L83.0569 23.1086L85.737 30.7183L88.5978 29.7107L85.9176 22.1011Z" fill="white"/>
<path d="M93.9757 20.4197L90.9614 20.7576L91.8602 28.7754L94.8744 28.4375L93.9757 20.4197Z" fill="white"/>
<path d="M111.047 25.0688L104.738 30.0967L106.628 32.4685L112.938 27.4406L111.047 25.0688Z" fill="white"/>
<path d="M114.475 32.4557L107.578 36.6414L109.152 39.2343L116.049 35.0487L114.475 32.4557Z" fill="white"/>
<path d="M101.383 20.1715L95.1704 35.1289L97.9714 36.2924L104.184 21.335L101.383 20.1715Z" fill="white"/>
</g>
</svg>
