<svg width="136" height="122" viewBox="0 0 136 122" fill="none" xmlns="http://www.w3.org/2000/svg">
<g opacity="0.2">
<path d="M106.809 112.321C100.493 112.954 93.2321 112.056 85.2268 109.656C71.1919 105.445 66.5554 99.5527 63.1597 95.2116C61.5818 93.2507 60.2721 91.5094 58.3429 90.4215C57.0372 89.6654 55.3883 89.3872 53.0076 89.626C51.6958 89.7575 50.2483 90.0012 48.7574 90.2985C46.9749 90.6251 44.998 90.9712 42.8603 91.1855C37.3701 91.7361 32.5409 91.0869 27.6723 89.111C13.427 83.3445 6.11316 77.6714 7.54971 73.5356C7.88581 72.5163 8.13487 71.6043 8.34546 70.7947C8.73321 69.3267 9.04403 68.0635 9.9247 67.0882C11.0665 65.7909 12.8703 64.723 14.8098 63.543C17.6754 61.8265 20.9145 59.9247 22.0018 57.1545C22.8248 55.1501 22.2054 53.4381 21.3847 51.2042C20.4212 48.5411 19.3201 45.4976 20.6109 41.3764C21.4887 38.4794 23.3593 37.1091 25.1429 35.8461C26.6066 34.8123 28.0652 33.7297 29.2283 31.6911C29.8944 30.5402 29.8915 28.6185 29.922 26.5457C29.9546 22.6 30.0268 17.6154 34.6405 14.2945C35.6002 13.6069 36.5901 13.212 37.6104 13.1097C38.825 12.9879 39.9344 13.2709 41.2381 13.5344C42.7948 13.8711 44.7069 14.32 47.3993 14.2472C50.0432 14.1792 52.5353 12.648 55.1681 11.0534C58.1259 9.27845 61.5006 7.26451 65.6304 6.8504C66.6507 6.74809 67.6326 6.74819 68.6731 6.84098C78.8305 7.74441 82.3264 11.632 82.5292 22.1084C82.6977 31.3069 91.8189 61.9811 118.13 74.2747C127.519 78.6556 132.561 83.7187 133.142 89.3276C133.987 97.4728 125.197 104.071 122.328 106.231C117.885 109.781 112.785 111.722 106.809 112.321ZM52.7598 87.2361C54.7032 87.0412 57.2499 86.9829 59.5495 88.3293C61.8492 89.6757 63.4271 91.6366 65.0687 93.7389C68.4594 98.0312 72.6415 103.328 85.9172 107.319C93.621 109.652 100.58 110.482 106.556 109.882C112.095 109.327 116.822 107.572 120.965 104.446C123.562 102.51 131.534 96.5361 130.831 89.7566C130.345 85.0744 125.763 80.6551 117.202 76.684C102.549 69.825 93.5804 57.6649 88.6738 48.695C82.9787 38.2766 80.2879 27.9511 80.1921 22.2935C80.0134 12.9974 77.5185 10.2414 68.6011 9.46008C67.7599 9.39658 66.8753 9.38673 66.0493 9.46955C62.454 9.83006 59.4962 11.6051 56.582 13.3264C53.6243 15.1014 50.8507 16.7593 47.6188 16.837C44.5862 16.944 42.4748 16.4658 40.8108 16.0413C39.6528 15.7631 38.7966 15.5533 37.9706 15.6362C37.3876 15.6946 36.8197 15.8994 36.18 16.3578C32.5207 18.9423 32.483 22.8393 32.4353 26.6386C32.4351 29.0041 32.3712 31.2281 31.4207 32.9497C30.0065 35.4077 28.228 36.7195 26.6286 37.8654C24.9372 39.0699 23.6142 40.0404 23.0007 42.1717C21.9691 45.4783 22.8688 48 23.7583 50.4241C24.5943 52.8043 25.4889 55.2772 24.3146 58.1546C22.8609 61.6515 19.2584 63.8361 16.1164 65.7281C14.3612 66.7911 12.693 67.7469 11.8174 68.7711C11.3336 69.3124 11.1331 70.2195 10.7737 71.4875C10.5682 72.3459 10.3241 73.3067 9.90098 74.4333C9.40594 75.8135 13.3482 80.6912 28.6209 86.8968C33.0805 88.7166 37.5595 89.3023 42.6124 88.7956C44.653 88.591 46.4841 88.2596 48.3152 87.9281C49.8547 87.6259 51.3508 87.3773 52.7598 87.2361Z" fill="white"/>
<path d="M126.791 93.5137C119.893 94.2054 110.231 93.7947 105.686 91.1464C102.5 89.298 99.5617 86.0452 96.7353 82.929C94.2946 80.2176 91.9712 77.6914 89.9938 76.6087C88.9029 76.0283 86.4064 75.1454 83.5111 74.204C74.6644 71.248 61.3408 66.7702 59.048 59.8067C57.3947 54.7499 57.1915 51.3707 57.059 48.6742C56.959 46.7627 56.8558 45.2949 56.2669 43.8759C55.4078 41.7449 54.142 39.9503 53.0471 38.3849C51.3167 35.8979 49.8211 33.7814 51.1297 31.7287C52.1003 30.2025 53.9846 29.9151 56.0198 29.6618C58.0549 29.4084 60.3279 29.082 62.1242 27.4731C63.8771 25.9178 67.657 24.504 73.4254 23.3344C77.606 22.4718 81.2441 22.0577 81.4384 22.0382L81.7399 24.4715C77.7131 24.9245 66.66 26.7226 63.7838 29.2774C61.45 31.3837 58.6428 31.7637 56.4133 32.0365C55.0097 32.2265 53.6546 32.4116 53.273 32.9919C52.853 33.6745 53.9479 35.2399 55.1551 36.9418C56.2551 38.5559 57.6383 40.5359 58.6198 42.9009C59.3949 44.6954 59.4799 46.4606 59.5951 48.5184C59.7609 51.0638 59.9439 54.2479 61.4697 59.0219C63.3446 64.7955 76.5124 69.1905 84.3957 71.8489C87.549 72.9123 89.9919 73.7512 91.2923 74.4584C93.635 75.7509 96.0758 78.4623 98.6774 81.3054C101.391 84.2851 104.218 87.4013 107.038 89.04C112.523 92.2346 127.678 91.6511 132.225 90.062L133.055 92.3929C131.531 92.8413 129.365 93.2556 126.791 93.5137Z" fill="white"/>
<path d="M73.4983 44.3871C72.818 44.4553 72.1227 44.3772 71.4607 44.1479C70.492 43.8016 69.6387 43.1481 69.1641 42.358C68.5821 41.4802 68.4708 40.4073 68.7685 39.4906C69.1866 38.3153 70.3254 37.462 71.7345 37.3207C72.4147 37.2525 73.1101 37.3306 73.7721 37.5599C75.9139 38.3306 77.1132 40.4276 76.4643 42.2173C76.0512 43.4413 74.9073 44.2458 73.4983 44.3871ZM71.9874 39.7591C71.5015 39.8078 71.1816 40.037 71.0611 40.2954C70.9406 40.5538 71.1218 40.8806 71.1856 41.022C71.4204 41.3927 71.7908 41.6512 72.2534 41.8512C73.0713 42.1633 73.9793 41.9245 74.123 41.4173C74.2719 40.9589 73.8508 40.2128 72.9358 39.9103C72.6291 39.7932 72.2789 39.7298 71.9874 39.7591Z" fill="white"/>
<path d="M83.3062 60.9917C82.6746 61.055 81.9793 60.9769 81.3173 60.7477C80.2951 60.3575 79.4419 59.704 78.952 58.7677C78.4086 57.7875 78.2973 56.7147 78.6385 55.7444C79.09 54.4181 80.3695 53.5015 81.8756 53.3505C82.5072 53.2872 83.2025 53.3652 83.8645 53.5944C84.8867 53.9846 85.74 54.6381 86.2298 55.5744C86.7733 56.5546 86.8845 57.6274 86.5433 58.5978C86.0868 59.8753 84.8609 60.8358 83.3062 60.9917ZM82.1234 55.7398C81.5404 55.7983 81.0798 56.0908 80.931 56.5492C80.7771 56.9588 80.9633 57.3343 81.0321 57.5244C81.2669 57.8951 81.6424 58.2023 82.105 58.4023C82.4117 58.5193 82.7082 58.5389 82.9997 58.5096C83.5827 58.4512 84.0433 58.1586 84.1921 57.7003C84.346 57.2907 84.1598 56.9152 84.091 56.725C83.8562 56.3544 83.4807 56.0472 83.0181 55.8472C82.7651 55.774 82.4149 55.7106 82.1234 55.7398Z" fill="white"/>
<path d="M95.5124 75.089C94.9294 75.1475 94.2826 75.0645 93.7229 74.8743C91.737 74.1865 90.645 72.1774 91.299 70.4366C91.7171 69.2614 92.8073 68.413 94.1677 68.2766C94.7507 68.2181 95.3975 68.3011 95.9572 68.4914C96.8722 68.7938 97.6283 69.457 98.1029 70.247C98.5826 71.0858 98.7374 72.105 98.3861 72.9778C97.968 74.153 96.8728 74.9526 95.5124 75.089ZM94.372 70.7197C94.0319 70.7538 93.6533 70.8903 93.5429 71.2462C93.3941 71.7046 93.805 72.3532 94.5156 72.5776C94.7686 72.6508 95.0166 72.6752 95.2595 72.6508C95.5996 72.6167 95.9782 72.4802 96.0885 72.1243C96.1604 71.8707 96.0815 71.583 95.9692 71.4464C95.7931 71.1685 95.4712 70.9051 95.1159 70.7929C94.9115 70.7149 94.6149 70.6953 94.372 70.7197Z" fill="white"/>
<path d="M85.6691 40.355L74.9274 40.9393C74.4414 40.988 73.92 40.6953 73.7237 40.2222C73.5273 39.749 73.6174 39.1978 74.0244 38.8613L82.2914 30.9847L84.0002 32.7847L78.145 38.3496L85.5185 37.9551L85.6691 40.355Z" fill="white"/>
<path d="M96.2711 59.4361L85.1224 57.499C84.675 57.4453 84.3481 57.1332 84.2054 56.704C84.0627 56.2749 84.1143 55.8262 84.3755 55.5044L89.7247 48.8581L91.6023 50.3944L87.559 55.4315L96.6549 56.9832L96.2711 59.4361Z" fill="white"/>
<path d="M116.983 76.418L96.7236 71.9409C96.2709 71.8384 95.8902 71.4821 95.791 70.9989C95.6918 70.5158 95.8407 70.057 96.2529 69.7691L102.662 64.7866L104.187 66.7047L99.8239 70.1012L117.523 74.0461L116.983 76.418Z" fill="white"/>
<path d="M118.646 107.801C116.64 105.98 108.23 104.457 100.118 102.952C90.7057 101.233 80.9919 99.446 76.0886 96.6829C70.2931 93.368 65.3272 87.1588 61.7588 82.5848C59.6667 79.9342 57.6921 77.469 56.6592 76.9808C55.6262 76.4926 53.1401 76.1995 50.2599 75.8966C44.7913 75.2615 37.3328 74.3822 32.0051 71.3164C23.8552 66.6102 20.7 60.8111 20.5725 60.528L22.7124 59.3763C22.7175 59.4251 25.6863 64.8483 33.2074 69.1737C38.0672 71.9905 45.2726 72.7966 50.5417 73.4024C53.7722 73.7687 56.307 74.057 57.7004 74.7063C59.2984 75.4338 61.1606 77.7622 63.7124 81.0572C67.212 85.4408 71.9632 91.4743 77.3394 94.5353C81.8823 97.1374 91.7956 98.9541 100.555 100.541C109.768 102.231 117.73 103.701 120.272 105.961L118.646 107.801Z" fill="white"/>
<path d="M49.2771 74.5786L46.8295 74.6271C46.4415 59.0571 41.5938 49.203 37.582 45.5185C36.2268 44.2757 34.8838 43.6226 33.7136 43.6907C33.6651 43.6956 31.3216 44.2753 32.2731 58.6563C32.5469 62.7157 25.5096 63.9139 24.1119 64.1526L23.7621 61.7257C26.325 61.3702 29.9185 60.0742 29.8357 58.8022C29.0549 47.0138 30.1598 41.5851 33.4124 41.2589C33.4609 41.2541 33.461 41.2541 33.5095 41.2492C35.3593 41.1129 37.3102 41.9513 39.2064 43.6815C46.2551 50.1635 49.0029 64.3643 49.2771 74.5786Z" fill="white"/>
</g>
</svg>
