<svg width="96" height="96" viewBox="0 0 96 96" fill="none" xmlns="http://www.w3.org/2000/svg">
<g clip-path="url(#clip0_2_2379)">
<path d="M94.5928 69.0746C95.3694 69.0746 95.9991 68.4451 95.9991 67.6683V64.9487C95.9991 62.1994 93.8998 59.9627 91.3197 59.9627H89.0438V57.0813C89.0438 55.0651 87.4034 53.4249 85.3874 53.4249H74.0682C72.052 53.4249 70.4118 55.0653 70.4118 57.0813V64.5851C60.3002 63.4056 47.7137 63.4037 37.5851 64.5851V57.0813C37.5851 55.0651 35.9447 53.4249 33.9287 53.4249H33.0343C40.7433 48.7305 49.3646 42.3648 56.0866 36.1651L60.5007 42.2333C61.6883 43.8664 63.9812 44.2232 65.6085 43.0396L74.7623 36.3815C74.7623 36.3815 74.7623 36.3815 74.7623 36.3813C76.3926 35.1956 76.7543 32.9042 75.5684 31.2735L73.8734 28.9433L75.7139 27.6047C77.8005 26.0868 78.1825 23.0433 76.5653 20.82L68.9323 10.3259C67.3149 8.10292 64.302 7.52862 62.2153 9.04641L60.3747 10.3853L58.6799 8.0553C57.4941 6.42445 55.2027 6.06314 53.5721 7.24887L44.4182 13.9069C42.7879 15.0927 42.4263 17.3841 43.6122 19.0147L48.0261 25.0829C39.1526 30.0784 28.975 37.4791 21.4792 44.3924L18.2323 39.929C16.4038 37.4152 12.8661 36.8565 10.3527 38.6853L4.40791 43.0092C1.89282 44.839 1.33501 48.3737 3.16443 50.889L3.69205 51.6144L1.85176 52.9529C-0.27653 54.5007 -0.583839 57.5598 1.00033 59.7377L8.63336 70.2314C9.46848 71.3798 10.6925 72.1101 11.9978 72.3042V77.925C11.9978 80.6743 14.097 82.9111 16.6772 82.9111H18.9531V85.7924C18.9531 87.8086 20.5935 89.4488 22.6094 89.4488H33.9287C35.9448 89.4488 37.5851 87.8084 37.5851 85.7924V78.2893C41.5816 78.7543 46.0742 79.0466 50.6887 79.1394C50.6985 79.1398 50.708 79.1398 50.7176 79.1398C51.4811 79.1398 52.1077 78.5286 52.1233 77.7617C52.1388 76.9853 51.522 76.3431 50.7453 76.3275C46.0926 76.2338 41.5726 75.9343 37.5851 75.4575V67.416C47.5331 66.2237 60.2573 66.1989 70.4118 67.416V75.4575C66.4247 75.9343 61.9045 76.2338 57.2515 76.3275C56.4751 76.3431 55.858 76.9853 55.8736 77.7615C55.8892 78.5286 56.5154 79.1398 57.2793 79.1398C57.2888 79.1398 57.2986 79.1398 57.3082 79.1394C61.9228 79.0466 66.4155 78.7543 70.4118 78.2893V85.7924C70.4118 87.8086 72.0522 89.4488 74.0682 89.4488H85.3874C87.4036 89.4488 89.0438 87.8084 89.0438 85.7924V82.9111H91.3197C93.8998 82.9111 95.9991 80.6743 95.9991 77.925V74.2313C95.9991 73.4545 95.3694 72.8251 94.5928 72.8251C93.8162 72.8251 93.1866 73.4545 93.1866 74.2313V77.925C93.1866 79.1031 92.3318 80.0985 91.3199 80.0985H89.044V62.7756H91.3199C92.3316 62.7756 93.1866 63.7708 93.1866 64.9489V67.6685C93.1864 68.4451 93.8162 69.0746 94.5928 69.0746ZM63.8696 11.3209C64.6877 10.7262 65.9649 11.0279 66.6575 11.9806L74.2906 22.4746C74.9836 23.4271 74.8776 24.7351 74.0594 25.3302L72.2189 26.6688C71.0795 25.1017 63.1873 14.2517 62.0292 12.6595L63.8696 11.3209ZM45.8867 17.3606C45.6179 16.9907 45.703 16.4509 46.0727 16.1818L55.2266 9.52359C55.598 9.25379 56.137 9.34097 56.4052 9.70978C56.9744 10.4924 70.0921 28.5267 70.7714 29.4608C70.7718 29.4612 70.772 29.4615 70.7724 29.4619L73.2936 32.928C73.5627 33.2979 73.4776 33.8377 73.1076 34.1068L63.9536 40.765C63.582 41.035 63.0476 40.9537 62.7752 40.5788C62.2204 39.8163 46.5563 18.2811 45.8867 17.3606ZM49.6912 27.3726L54.4216 33.8758C47.1053 40.6662 36.8428 48.1729 27.8742 53.1841L23.1446 46.6819C30.4412 39.9093 40.7099 32.3908 49.6912 27.3726ZM11.9978 64.9487V69.4126C11.5795 69.2568 11.1929 68.9684 10.9083 68.5769L3.27524 58.0831C2.55056 57.0871 2.71256 55.805 3.50642 55.2275L5.34671 53.8889C5.56984 54.1959 7.31675 56.5973 12.2406 63.3669C12.073 63.8996 11.9978 64.4494 11.9978 64.9487ZM18.9531 80.0983H16.6772C15.6655 80.0983 14.8105 79.1031 14.8105 77.9248C14.8105 76.6543 14.8105 66.273 14.8105 64.9485C14.8105 64.4572 14.9727 63.9268 15.2938 63.5102C15.6763 63.0131 16.1936 62.7752 16.6772 62.7752H18.9529L18.9531 80.0983ZM18.9531 57.0811V59.9625H16.6772C16.563 59.9625 16.45 59.9684 16.3376 59.9772C16.3178 59.9787 16.2979 59.9802 16.278 59.982C15.4073 60.0608 14.604 60.3944 13.9341 60.9128L5.43915 49.2341C4.52191 47.9734 4.80147 46.201 6.06239 45.2837L12.0072 40.9598C13.2625 40.0462 15.0439 40.3268 15.9576 41.5833C16.9815 42.9908 23.4749 51.9181 24.5707 53.4245H22.6093C20.5935 53.4245 18.9531 55.0649 18.9531 57.0811ZM34.7726 85.7922C34.7726 86.2495 34.3862 86.636 33.9289 86.636H22.6096C22.1523 86.636 21.7659 86.2495 21.7659 85.7922C21.7659 84.4687 21.7659 57.9441 21.7659 57.0813C21.7659 56.624 22.1523 56.2375 22.6096 56.2375C25.4714 56.2375 27.0515 56.2375 27.874 56.2375C28.4669 56.2375 28.6664 56.2375 28.6681 56.2375C29.4902 56.2375 31.0693 56.2375 33.9289 56.2375C34.3862 56.2375 34.7726 56.624 34.7726 57.0813C34.7726 58.8214 34.7726 84.7222 34.7726 85.7922ZM86.2314 85.7922C86.2314 86.2495 85.8449 86.636 85.3876 86.636H74.0684C73.6111 86.636 73.2246 86.2495 73.2246 85.7922V57.0813C73.2246 56.624 73.6111 56.2375 74.0684 56.2375H85.3876C85.8449 56.2375 86.2314 56.624 86.2314 57.0813C86.2314 58.8134 86.2314 84.863 86.2314 85.7922Z" fill="black"/>
</g>
<defs>
<clipPath id="clip0_2_2379">
<rect width="95.999" height="95.999" fill="white"/>
</clipPath>
</defs>
</svg>
