<svg width="79" height="85" viewBox="0 0 79 85" fill="none" xmlns="http://www.w3.org/2000/svg">
<g opacity="0.2">
<path d="M44.9814 80.5741C35.4376 81.5966 26.8314 79.459 20.049 74.4112C12.5125 68.7546 7.49718 59.5097 5.49338 47.615C4.56926 41.9826 4.90831 37.2921 6.57176 33.3217C9.04573 27.3682 14.4513 23.083 22.6236 20.5268L23.2788 22.5682C15.7287 24.9285 10.7944 28.8184 8.55129 34.1438C6.54855 38.9263 7.05788 43.9137 7.59537 47.2175C11.2777 69.2316 25.4835 80.8532 45.5845 78.2686C61.0762 76.3071 68.9039 65.9878 71.6408 43.803C72.8043 34.5424 69.0995 28.2168 65.8142 24.5179C61.1574 19.2854 54.8559 16.6424 51.0383 16.6635C45.8964 16.7404 41.504 19.7105 41.4239 19.7622L40.1984 17.9973C40.3963 17.8469 45.1893 14.6184 50.9722 14.5159C55.1291 14.4584 62.0339 17.123 67.3695 23.0585C70.9516 27.1133 74.977 34.008 73.7287 44.0533C72.3909 54.8408 69.9783 62.5114 66.1941 68.2604C61.5616 75.2639 54.9164 79.2079 45.8156 80.3554C45.5753 80.5104 45.2783 80.5422 44.9814 80.5741Z" fill="#00ADF3"/>
<path d="M36.747 32.6851C35.6002 32.8084 34.4675 32.6708 33.5095 32.1686C29.8568 30.2269 27.1005 30.9555 27.0581 30.96L26.5768 29.3259C26.6996 29.2695 29.9561 28.4007 34.2884 30.6584C37.757 32.4901 44.7 27.2481 45.6441 26.066L46.9654 27.1343C46.3612 27.8909 44.1523 29.6845 41.6744 30.9883C40.2537 31.7462 38.4886 32.4979 36.747 32.6851Z" fill="#00ADF3"/>
<path d="M35.7679 32.8686C35.6408 32.8822 35.5561 32.8913 35.4196 32.8198C35.0194 32.6905 34.7605 32.2877 34.7981 31.8532L38.1779 11.6435C38.2203 11.2515 38.531 10.9599 38.9123 10.919L44.2933 10.3421C44.5899 10.3103 44.9053 10.4487 45.0606 10.6904C45.2584 10.9275 45.296 11.2679 45.1548 11.5413L36.4364 32.3233C36.2999 32.6393 36.0645 32.8368 35.7679 32.8686ZM39.7409 12.5953L37.6792 24.9572L43.0458 12.241L39.7409 12.5953Z" fill="#00ADF3"/>
<path d="M32.9336 28.4299C25.4286 29.2341 20.9479 18.9894 20.4768 17.8339C18.7759 13.709 15.9584 8.02394 15.949 7.93881L14.9548 5.93481L17.0184 6.74742C18.4553 7.32565 19.2845 7.45215 20.1608 7.61667C21.6496 7.88785 23.0064 8.13009 26.9781 10.2888C33.4137 13.7771 37.0276 25.493 37.1689 25.9947L37.3668 26.6196L36.8062 26.9811C35.4824 27.8122 34.2056 28.2935 32.9336 28.4299ZM18.3423 9.01755C19.3411 11.0641 20.9195 14.4699 22.0362 17.193C23.6145 20.9864 27.6146 27.277 32.7451 26.7272C33.5931 26.6363 34.4176 26.3326 35.3127 25.8921C34.4787 23.3972 31.1806 14.5333 26.163 11.8406C22.4647 9.82487 21.1926 9.57354 19.8358 9.3313C19.3976 9.24903 18.9171 9.17131 18.3423 9.01755Z" fill="#00ADF3"/>
<path d="M36.0512 20.7956C34.8623 20.9231 33.7677 20.7385 33.5932 20.7141L33.815 18.8354C34.4095 18.7716 36.1646 19.1011 37.2214 18.5563L38.0517 20.2359C37.4383 20.5174 36.7306 20.7227 36.0512 20.7956Z" fill="#00ADF3"/>
</g>
</svg>
