<svg width="111" height="95" viewBox="0 0 111 95" fill="none" xmlns="http://www.w3.org/2000/svg">
<g opacity="0.2">
<path d="M72.1517 87.5948C70.3562 87.5948 68.518 87.3382 66.808 86.7825L11.4895 69.9817C6.91522 68.571 3.53799 65.7067 2.21274 62.073C1.10124 59.0805 1.52872 55.8315 3.36697 52.9673L33.8905 5.68577C36.1562 2.18027 40.987 0 46.5445 0C48.6392 0 50.6912 0.299229 52.6577 0.940479L99.0415 15.7748C103.145 17.1 106.352 19.665 107.848 22.8712C108.874 25.137 108.959 27.4455 108.062 29.6258C107.933 29.9678 93.0137 67.887 87.157 79.1302C84.421 84.2602 78.5642 87.5948 72.1517 87.5948ZM46.5017 2.1375C41.7565 2.1375 37.4815 3.97575 35.6432 6.84L5.11971 54.1215C3.62346 56.43 3.28148 58.995 4.17923 61.3462C5.29073 64.3387 8.15498 66.7755 12.088 67.9725L67.4065 84.7733C68.9455 85.2435 70.5272 85.5 72.1517 85.5C77.7092 85.5 82.9247 82.5503 85.2332 78.1898C91.0472 67.0748 105.881 29.2837 106.052 28.899C106.736 27.2745 106.651 25.5645 105.881 23.8545C104.684 21.2468 101.863 18.981 98.4002 17.8695L52.0165 3.03524C50.2637 2.43674 48.4255 2.1375 46.5017 2.1375Z" fill="#00ADF3"/>
<path d="M73.8191 94.734C72.2801 94.734 69.1593 94.3065 62.5758 92.682C56.2488 91.1002 47.9553 88.7062 39.2771 85.9275C24.1863 81.0967 5.33356 74.3422 1.87081 71.0505C-2.06219 67.2885 1.40058 58.995 1.57158 58.653L3.53807 59.508C2.68307 61.5172 0.973062 67.2457 3.36706 69.5542C5.84656 71.9055 20.6808 77.7622 39.4053 83.7472C59.0276 90.0315 72.5366 93.1522 74.3748 92.5965C74.8878 92.1262 75.4008 89.0482 75.4863 86.184L77.6238 86.2267C77.5383 88.8345 77.1536 93.4087 75.4436 94.4347C75.2298 94.5202 74.8878 94.734 73.8191 94.734Z" fill="#00ADF3"/>
<path d="M74.631 94.734L74.2891 92.6392C74.3746 92.6392 83.9933 90.8865 88.3538 81.9517C96.6473 64.9372 105.497 41.724 108.147 30.1815C108.617 28.044 106.694 24.7523 105.881 23.6408L107.591 22.401C107.933 22.8713 110.969 27.2317 110.199 30.6517C107.549 42.3225 98.6138 65.7495 90.2348 82.8922C85.404 92.853 75.1013 94.6912 74.631 94.734Z" fill="#00ADF3"/>
<path d="M72.8357 78.5317C65.782 78.5317 50.9904 75.24 38.4647 70.8795C18.1157 63.783 13.1567 57.8835 12.6009 54.1642C11.4894 47.025 33.121 19.2802 35.6005 16.1167C39.961 10.1317 43.552 7.56671 47.5705 7.56671C49.366 7.56671 51.2042 8.07974 53.4272 9.14849C54.5814 9.70424 55.2655 10.5165 55.4792 11.4997C56.035 13.9365 53.7265 16.758 51.0332 20.0497C48.9385 22.572 46.801 25.2225 46.5017 27.2317C46.3307 28.3432 46.7154 29.4547 47.6987 30.609C52.7432 36.5512 70.3562 40.3133 76.4267 40.3133C76.726 40.3133 76.9825 40.3132 77.239 40.2705C83.566 39.7575 85.2332 32.0198 86.4302 26.4195C86.6867 25.308 86.9005 24.282 87.1142 23.427C87.7127 21.2895 89.4654 20.0925 91.9449 20.0925C95.2367 20.0925 99.5544 22.3155 100.238 25.1797C101.093 28.9417 97.1605 42.1942 92.8855 52.839C84.8057 72.846 78.9062 77.3347 76.1274 78.2325C75.2724 78.4035 74.2037 78.5317 72.8357 78.5317ZM47.5277 9.66147C44.2787 9.66147 41.2007 11.97 37.2677 17.3565C27.7772 29.412 13.9262 49.0343 14.653 53.7795C15.337 58.0973 24.4854 63.6975 39.1059 68.8275C51.4607 73.1452 65.953 76.3942 72.793 76.3942C74.2037 76.3942 74.9732 76.266 75.358 76.1377C79.4192 74.8125 85.1905 65.7922 90.7907 51.9412C95.878 39.3727 98.6567 28.1295 98.0582 25.5645C97.7162 24.111 94.5955 22.1445 91.8595 22.1445C90.3204 22.1445 89.4227 22.743 89.0807 23.94C88.867 24.7095 88.6532 25.7355 88.3967 26.8042C87.1142 32.7465 85.1905 41.724 77.2817 42.3652C76.9825 42.408 76.6832 42.408 76.2984 42.408C69.7577 42.408 51.5034 38.4322 45.9459 31.9342C44.5779 30.3097 44.0222 28.5998 44.2787 26.847C44.7062 24.282 47.0147 21.4177 49.2805 18.6817C51.2897 16.2022 53.5982 13.3807 53.299 11.97C53.2562 11.8417 53.1707 11.457 52.4012 11.0722C50.5629 10.089 48.9812 9.66147 47.5277 9.66147Z" fill="#00ADF3"/>
<path d="M73.8194 37.62C67.2359 37.62 51.0764 33.3023 50.9481 27.702C50.8199 21.4178 56.0353 16.3305 60.9088 14.2358C62.7898 13.4235 65.0984 12.996 67.6206 12.996C70.1856 12.996 72.8788 13.4235 75.4011 14.2785C80.4028 15.9458 82.7969 19.494 82.7969 25.0515C82.7969 30.438 81.9418 34.3283 77.7951 36.765C76.8973 37.3208 75.6149 37.62 73.8194 37.62ZM67.6206 15.1335C65.3976 15.1335 63.3883 15.5183 61.7638 16.2023C55.7361 18.7673 53.0429 23.9828 53.1284 27.6593C53.1711 30.609 65.9534 35.4825 73.8621 35.4825C75.6576 35.4825 76.4698 35.0977 76.7691 34.9268C80.0608 33.003 80.7021 29.9678 80.7021 25.0943C80.7021 20.4345 78.8638 17.7413 74.7598 16.3305C72.3658 15.6038 69.9291 15.1335 67.6206 15.1335Z" fill="#00ADF3"/>
<path d="M60.7373 15.6483L58.7212 16.3583L60.61 21.7212L62.6261 21.0111L60.7373 15.6483Z" fill="#00ADF3"/>
<path d="M66.448 14.5128L64.3237 14.7509L64.9571 20.4014L67.0814 20.1633L66.448 14.5128Z" fill="#00ADF3"/>
<path d="M78.5663 17.6977L74.1206 21.2422L75.4531 22.9135L79.8988 19.369L78.5663 17.6977Z" fill="#00ADF3"/>
<path d="M81.0088 22.9628L76.1475 25.912L77.2562 27.7396L82.1175 24.7904L81.0088 22.9628Z" fill="#00ADF3"/>
<path d="M71.7372 14.2613L67.3423 24.8419L69.3163 25.6618L73.7112 15.0812L71.7372 14.2613Z" fill="#00ADF3"/>
</g>
</svg>
