<svg width="140" height="104" viewBox="0 0 140 104" fill="none" xmlns="http://www.w3.org/2000/svg">
<g opacity="0.2">
<path d="M118.921 44.5455C113.705 44.5455 107.934 40.356 101.735 32.0625C92.5439 19.665 90.3209 11.799 94.7241 7.31022C96.2631 5.77122 98.4434 4.78796 100.367 4.78796C101.521 4.78796 102.462 5.13 103.146 5.7285C105.198 7.6095 105.839 10.3455 106.566 13.509C107.378 17.0572 108.319 21.1185 111.525 24.966C115.971 30.2242 119.519 31.293 122.383 32.1908C124.521 32.832 126.359 33.4305 127.684 35.4825C128.881 37.3635 127.684 40.2705 124.777 42.5362C123.025 43.8615 121.058 44.5455 118.921 44.5455ZM100.41 6.92546C99.0419 6.92546 97.4174 7.65222 96.3059 8.80647C95.0234 10.1317 91.0904 14.1075 103.488 30.78C109.131 38.3895 114.475 42.408 118.921 42.408C120.545 42.408 122.084 41.8522 123.452 40.7835C125.675 39.0735 126.274 37.2352 125.846 36.594C124.991 35.226 123.709 34.8412 121.742 34.2427C118.75 33.345 114.688 32.1052 109.858 26.334C106.267 22.1017 105.283 17.613 104.428 13.9792C103.744 11.0295 103.231 8.72097 101.692 7.31022C101.479 7.05372 101.008 6.92546 100.41 6.92546Z" fill="#00ADF3"/>
<path d="M125.931 34.8413C122.127 34.8413 117.595 31.977 112.465 26.334C106.651 19.9215 103.573 13.5945 103.958 8.9775C104.129 7.13925 104.856 5.64301 106.138 4.65976C107.848 3.29176 110.499 1.96649 112.465 1.96649C113.363 1.96649 114.09 2.22301 114.603 2.73601C116.142 4.27501 116.227 5.98502 116.27 7.82327C116.355 10.431 116.484 13.6373 120.545 18.5108C124.948 23.8118 127.171 24.4102 128.796 24.8377C129.822 25.0942 130.848 25.3935 131.916 26.505C132.771 27.4028 133.156 28.4288 133.071 29.4548C132.9 31.4213 130.933 32.8748 129.993 33.5588C128.838 34.371 127.428 34.8413 125.931 34.8413ZM112.465 4.06125C111.225 4.06125 109.131 5.00177 107.464 6.32702C106.694 6.92552 106.224 7.86601 106.138 9.14851C105.796 13.1243 108.789 18.981 114.09 24.8805C119.904 31.3357 123.751 32.661 125.931 32.661C127 32.661 127.941 32.3618 128.753 31.7633C129.394 31.293 130.848 30.2243 130.976 29.1983C130.976 29.07 131.019 28.5998 130.42 27.9158C129.779 27.2318 129.223 27.0608 128.325 26.847C126.402 26.334 123.794 25.65 118.963 19.836C114.432 14.4068 114.303 10.602 114.175 7.86601C114.09 6.02776 114.047 5.13001 113.149 4.23226C112.978 4.14676 112.764 4.06125 112.465 4.06125Z" fill="#00ADF3"/>
<path d="M130.463 26.334C127.642 26.334 124.606 23.94 120.203 18.3398C114.688 11.286 113.406 4.83075 116.954 1.92375C118.408 0.72675 120.289 0 121.87 0C122.725 0 123.452 0.21375 124.008 0.64125C125.333 1.71 125.504 3.078 125.675 4.48875C125.889 6.19875 126.145 8.33623 128.155 11.4142C130.42 14.8342 132.216 15.7747 133.669 16.5442C134.738 17.1 135.764 17.6558 136.405 18.981C137.431 21.033 134.695 24.5812 133.242 25.479C132.344 26.0775 131.404 26.334 130.463 26.334ZM121.87 2.18024C120.802 2.18024 119.348 2.77875 118.322 3.63375C115.8 5.68575 117.253 11.0723 121.913 17.0573C125.718 21.9308 128.454 24.1965 130.463 24.1965C131.019 24.1965 131.575 24.0255 132.13 23.6835C133.242 22.9995 134.653 20.6055 134.482 20.007C134.14 19.3658 133.669 19.0665 132.686 18.5535C131.104 17.6985 128.967 16.5442 126.402 12.6967C124.093 9.19123 123.794 6.66902 123.58 4.83077C123.409 3.50552 123.324 2.86424 122.725 2.39399C122.512 2.22299 122.212 2.18024 121.87 2.18024Z" fill="#00ADF3"/>
<path d="M35.6007 101.489C34.3182 101.489 33.2922 101.061 32.6937 100.249C31.1974 98.325 31.3257 96.4013 31.4112 94.1783C31.5822 91.1858 31.7532 87.4665 28.3332 81.4815C25.8109 77.121 22.3482 74.898 19.2702 72.9315C16.5342 71.1787 14.1829 69.6398 13.1142 67.0748C12.1309 64.6808 14.2257 61.1752 17.4747 59.679C18.458 59.2087 19.5267 58.995 20.5954 58.995C25.6399 58.995 31.2829 63.9968 38.3367 74.727C43.5094 82.593 45.647 89.0055 44.621 93.8362C44.0652 96.444 42.6117 98.496 40.3032 99.9495C38.7214 100.933 37.0542 101.489 35.6007 101.489ZM20.6382 61.1325C19.8687 61.1325 19.1419 61.3035 18.4152 61.6455C15.9357 62.757 14.7387 65.2365 15.1662 66.2625C15.9784 68.229 17.9877 69.5115 20.5099 71.136C23.6307 73.1453 27.5209 75.6247 30.2569 80.4555C34.0189 86.9535 33.8052 91.2285 33.6342 94.3065C33.5487 96.3157 33.4632 97.6837 34.4464 98.9662C34.6602 99.2227 35.0877 99.3937 35.6435 99.3937C36.6695 99.3937 37.9519 98.9235 39.1917 98.154C40.9872 96.9997 42.1414 95.418 42.5689 93.4087C43.4667 89.262 41.4147 83.2342 36.6267 75.9667C30.0432 65.9632 24.8277 61.1325 20.6382 61.1325Z" fill="#00ADF3"/>
<path d="M26.0672 103.37C25.0839 103.37 23.7587 102.985 22.8182 101.189C22.0914 99.7785 22.2196 98.7098 22.3051 97.6838C22.4761 96.0165 22.6472 93.708 19.1844 87.7658C15.9782 82.2938 12.9856 81.054 10.5916 80.0708C8.88162 79.3868 7.29992 78.7027 6.35942 76.779C5.20517 74.2995 8.53967 71.0505 11.0619 69.4688C11.9169 68.913 12.9001 68.6565 14.0116 68.6565C18.7996 68.6565 24.6564 74.0858 29.3161 82.8495C35.6004 94.6913 33.2064 99.693 30.0857 101.788C28.8887 102.557 27.4779 103.37 26.0672 103.37ZM14.0116 70.794C13.3276 70.794 12.7291 70.965 12.2161 71.2642C9.73665 72.8032 7.98391 75.1118 8.32591 75.8385C8.83891 76.9928 9.69388 77.3775 11.4039 78.0615C13.9689 79.0875 17.4744 80.541 21.0226 86.6542C24.8274 93.195 24.6136 95.8883 24.3999 97.8548C24.3144 98.7953 24.2716 99.351 24.6991 100.206C25.1694 101.104 25.6397 101.232 26.0244 101.232C27.0077 101.232 28.2474 100.377 28.8459 99.9923C32.2232 97.7265 31.7101 91.998 27.3924 83.8327C22.3051 74.214 17.0041 70.794 14.0116 70.794Z" fill="#00ADF3"/>
<path d="M16.5771 103.626C15.5511 103.626 14.7816 103.369 14.3114 102.856C13.2854 101.788 13.1571 100.676 12.9434 99.4365C12.7296 97.812 12.4304 95.8027 9.99364 92.511C7.77064 89.5185 5.88962 88.578 4.30787 87.8085C3.02537 87.1672 1.78565 86.526 1.2299 84.9442C0.545895 82.8495 2.55514 80.1135 4.86364 78.7455C5.67589 78.2752 6.57361 78.0187 7.55686 78.0187C11.1906 78.0187 15.4229 81.4387 19.1849 87.4237C23.3316 94.0072 25.2981 99.0517 21.4506 102.13C20.4246 102.899 18.2016 103.626 16.5771 103.626ZM7.55686 80.1562C6.95836 80.1562 6.44538 80.2845 5.97513 80.5837C4.13688 81.6952 3.06811 83.5335 3.28186 84.2175C3.53836 84.9442 4.05139 85.2435 5.29114 85.842C6.95839 86.6543 9.22414 87.8085 11.7036 91.1858C14.4824 94.905 14.8244 97.3418 15.0809 99.0945C15.2519 100.206 15.3374 100.762 15.8504 101.317C15.8931 101.36 16.1069 101.446 16.5771 101.446C17.8596 101.446 19.6124 100.805 20.1254 100.377C22.0064 98.8808 22.2201 96.273 17.3466 88.5352C14.1404 83.3625 10.3784 80.1562 7.55686 80.1562Z" fill="#00ADF3"/>
<path d="M40.0469 78.9592L38.8071 77.2065C38.8926 77.1637 47.1006 71.4352 49.8366 69.5542C51.7177 68.2717 53.8979 66.7755 56.2064 65.151C61.0372 61.7738 66.5519 57.969 72.3231 54.1642C80.5311 48.735 88.9529 42.8783 95.1089 38.6033C96.4342 37.6628 97.7166 36.8077 98.8709 35.9955C100.025 35.1832 103.36 32.49 103.36 32.49L104.728 34.1573C104.599 34.2855 101.308 36.936 100.111 37.791C98.9564 38.6033 97.7167 39.4582 96.3914 40.3987C90.2354 44.6737 81.8137 50.5305 73.5629 55.9598C67.8344 59.7645 62.3197 63.5692 57.4889 66.9037C55.1804 68.5282 53.0001 70.0245 51.1192 71.307C48.2977 73.188 40.1324 78.9165 40.0469 78.9592Z" fill="#00ADF3"/>
<path d="M7.08647 101.83C7.00097 101.83 6.91547 101.83 6.87272 101.83C4.60697 101.488 0.75945 97.7265 0.1182 95.247C-0.26655 93.8363 0.374742 93.1095 0.802242 92.7675C2.38399 91.5277 7.55671 88.0222 7.77046 87.894L8.96748 89.6895C8.92473 89.7323 3.75197 93.2378 2.17022 94.4348C2.17022 94.6058 2.25571 95.076 2.85421 95.931C4.05121 97.7265 6.2742 99.522 7.17195 99.693C7.8987 99.5647 10.5492 97.5555 12.9005 95.2898L14.3967 96.8287C11.96 99.1372 8.83922 101.83 7.08647 101.83Z" fill="#00ADF3"/>
<path d="M34.7883 71.9483L33.5913 70.1528C33.7196 70.0673 44.9201 62.7998 48.5111 60.363C53.3418 57.114 67.5776 47.4525 67.5776 47.4525L87.9265 34.029L98.9133 25.7355L100.196 27.4455L89.1236 35.7818L68.7746 49.2053C68.7746 49.2053 54.5388 58.8668 49.708 62.1158C46.117 64.5953 34.9166 71.9055 34.7883 71.9483Z" fill="#00ADF3"/>
<path d="M130.078 16.5442L129.309 14.535C132.814 13.2097 136.79 10.944 137.004 9.61875C137.132 8.9775 136.405 6.92548 135.208 5.42923C134.567 4.65973 134.139 4.48875 134.054 4.48875C131.361 5.472 126.145 9.78975 126.102 9.8325L124.734 8.16524C124.948 7.99424 130.292 3.54823 133.37 2.43673C133.926 2.22298 134.866 2.18026 136.02 3.16351C137.688 4.57426 139.526 8.1225 139.141 10.0462C138.543 13.167 131.489 15.9885 130.078 16.5442Z" fill="#00ADF3"/>
</g>
</svg>
