<svg width="144" height="128" viewBox="0 0 144 128" fill="none" xmlns="http://www.w3.org/2000/svg">
<g opacity="0.2">
<path d="M103.755 125.421C96.8559 124.957 89.2304 122.679 81.087 118.656C66.8104 111.6 62.9384 104.442 60.1074 99.1718C58.7813 96.7834 57.702 94.679 55.835 93.1632C54.5752 92.116 52.8574 91.5192 50.2569 91.3443C48.8241 91.2479 47.2245 91.2472 45.5682 91.2962C43.5934 91.3237 41.4064 91.337 39.0713 91.1799C33.0744 90.7765 28.0121 89.2061 23.1564 86.206C8.94573 77.4435 2.15849 70.0359 4.47633 65.8608C5.02832 64.8286 5.46675 63.8956 5.84466 63.0655C6.53626 61.5615 7.10685 60.2632 8.23518 59.3766C9.70424 58.1922 11.8409 57.3735 14.1442 56.4591C17.5424 55.1371 21.3762 53.684 23.063 50.9102C24.3225 48.9096 23.9787 46.9616 23.5166 44.4174C22.9819 41.3872 22.3707 37.9241 24.5293 33.7383C26.015 30.7905 28.2801 29.6596 30.4316 28.628C32.1968 27.7843 33.9657 26.8874 35.5967 24.9119C36.5276 23.7982 36.8849 21.7369 37.3064 19.5196C38.0815 15.2942 39.0939 9.96194 44.6696 7.23585C45.8287 6.6722 46.9655 6.42783 48.0799 6.50281C49.4067 6.59206 50.5445 7.09635 51.8946 7.61493C53.5025 8.2578 55.4709 9.08535 58.3749 9.49459C61.2258 9.90026 64.1882 8.70935 67.3136 7.47595C70.8217 6.10788 74.8222 4.55905 79.3331 4.86253C80.4476 4.9375 81.5016 5.11533 82.6012 5.40319C93.3356 8.21063 96.3592 13.0124 94.612 24.2838C93.0675 34.1786 97.1056 68.7239 123.045 86.6701C132.302 93.0675 136.764 99.4097 136.337 105.53C135.716 114.417 125.042 119.902 121.557 121.699C116.122 124.702 110.283 125.86 103.755 125.421ZM50.4391 88.7365C52.5619 88.8793 55.3067 89.2779 57.5228 91.138C59.7389 92.9981 61.065 95.3865 62.433 97.9381C65.2677 103.155 68.7636 109.592 82.2664 116.276C90.0988 120.171 97.4133 122.321 103.941 122.76C109.991 123.167 115.395 122.14 120.429 119.538C123.58 117.932 133.258 112.969 133.774 105.571C134.131 100.462 130.042 94.8938 121.596 89.0857C107.153 79.0778 99.8061 64.4142 96.2214 53.9069C92.0619 41.7035 91.11 30.1437 92.0683 24.0592C93.6202 14.0579 91.4588 10.6509 82.0326 8.19882C81.1416 7.97847 80.1938 7.80777 79.2916 7.74708C75.3644 7.48287 71.8563 8.85095 68.4051 10.1694C64.8971 11.5374 61.6088 12.8133 58.1247 12.3116C54.8492 11.8774 52.6723 10.9823 50.9657 10.2259C49.7748 9.71802 48.8949 9.33807 47.9927 9.27737C47.3559 9.23453 46.7079 9.35133 45.9351 9.72709C41.5222 11.8363 40.7509 16.0085 39.9869 20.0742C39.5431 22.6109 39.0574 24.9843 37.7141 26.6584C35.7349 29.0383 33.5796 30.1231 31.6478 31.0625C29.6061 32.048 28.0039 32.8492 26.9456 35.0237C25.2179 38.3829 25.7107 41.25 26.211 44.0105C26.662 46.7143 27.1585 49.5281 25.3582 52.4013C23.1418 55.8881 18.8647 57.5787 15.137 59.0389C13.0534 59.8612 11.0834 60.5842 9.95134 61.5239C9.33038 62.0168 8.94503 62.9533 8.32138 64.2481C7.93974 65.1314 7.49759 66.1176 6.83202 67.2491C6.04172 68.6396 9.35878 74.584 24.5899 84.0033C29.036 86.762 33.7342 88.2009 39.2535 88.5722C41.4825 88.7221 43.5103 88.6981 45.5381 88.6742C47.2475 88.6287 48.9001 88.633 50.4391 88.7365Z" fill="white"/>
<path d="M128.715 108.946C121.181 108.439 110.885 106.25 106.502 102.587C103.429 100.028 100.885 96.0076 98.4349 92.1541C96.3232 88.8044 94.3028 85.6747 92.3831 84.1556C91.3209 83.3356 88.8063 81.9369 85.8747 80.4032C76.9319 75.6317 63.4683 68.4177 62.3131 60.5348C61.4868 54.8124 61.9025 51.1516 62.2661 48.2358C62.5173 46.1677 62.6818 44.575 62.3158 42.9465C61.7933 40.5057 60.7709 38.3519 59.8892 36.475C58.4981 33.4945 57.2895 30.954 59.0794 28.9895C60.4076 27.5285 62.4844 27.5613 64.7168 27.6581C66.9491 27.7548 69.4505 27.8162 71.6808 26.4159C73.8543 25.0652 78.1773 24.2333 84.5894 24.0231C89.2392 23.8548 93.2226 24.0693 93.4348 24.0836L93.302 26.7477C88.8941 26.5046 76.6909 26.4321 73.1239 28.6513C70.2234 30.4877 67.1384 30.3871 64.6938 30.2761C63.1513 30.2258 61.6618 30.179 61.1434 30.7322C60.5644 31.3882 61.4462 33.2652 62.4229 35.3089C63.301 37.2391 64.4146 39.6128 65.0247 42.3269C65.5201 44.3917 65.2802 46.3001 65.0179 48.5278C64.7185 51.2876 64.3177 54.7355 65.0602 60.1315C65.99 66.6627 79.3018 73.7597 87.2662 78.0377C90.4519 79.7489 92.9171 81.0908 94.1805 82.0846C96.453 83.8948 98.5647 87.2444 100.824 90.7645C103.179 94.4512 105.629 98.3048 108.349 100.573C113.638 104.992 130.017 107.109 135.196 106.228L135.651 108.878C133.93 109.083 131.528 109.135 128.715 108.946Z" fill="white"/>
<path d="M80.6683 46.5422C79.9253 46.4922 79.1935 46.2825 78.5259 45.9168C77.551 45.3701 76.7576 44.5148 76.3963 43.5816C75.9362 42.5348 76.018 41.3641 76.5095 40.4348C77.1788 39.2502 78.5613 38.5412 80.1004 38.6448C80.8434 38.6947 81.5752 38.9044 82.2428 39.2701C84.3975 40.4843 85.2916 42.9503 84.2593 44.7521C83.5862 45.9899 82.2074 46.6457 80.6683 46.5422ZM79.9145 41.3054C79.3838 41.2697 78.9974 41.4576 78.8196 41.713C78.6418 41.9683 78.775 42.3515 78.8169 42.5147C78.9994 42.9547 79.3486 43.299 79.8077 43.5972C80.6271 44.08 81.6466 43.9882 81.8961 43.4704C82.1418 43.0057 81.8298 42.1293 80.9043 41.6393C80.597 41.4583 80.2329 41.3269 79.9145 41.3054Z" fill="white"/>
<path d="M88.1317 66.1665C87.4418 66.1201 86.71 65.9104 86.0424 65.5448C85.0182 64.9413 84.2249 64.086 83.8747 62.9932C83.4751 61.8436 83.5569 60.673 84.1051 59.6942C84.8386 58.3535 86.384 57.6021 88.0292 57.7128C88.7191 57.7592 89.4509 57.9688 90.1185 58.3345C91.1427 58.938 91.936 59.7933 92.2862 60.886C92.6858 62.0356 92.604 63.2063 92.0557 64.1851C91.326 65.4726 89.8299 66.2807 88.1317 66.1665ZM87.847 60.3201C87.2102 60.2773 86.6609 60.5076 86.4152 60.9722C86.1732 61.3836 86.3026 61.82 86.3408 62.0364C86.5234 62.4764 86.8688 62.8739 87.3279 63.1721C87.6351 63.3531 87.9498 63.4278 88.2682 63.4492C88.905 63.492 89.4543 63.2617 89.7 62.797C89.9421 62.3856 89.8126 61.9492 89.7744 61.7328C89.5919 61.2929 89.2464 60.8954 88.7874 60.5972C88.5295 60.4729 88.1654 60.3415 87.847 60.3201Z" fill="white"/>
<path d="M98.6327 83.5423C97.9958 83.4995 97.3171 83.2934 96.7519 82.9881C94.7491 81.891 93.9537 79.5387 94.9823 77.7902C95.6516 76.6056 96.981 75.8931 98.467 75.993C99.1038 76.0359 99.7825 76.242 100.348 76.5473C101.273 77.0372 101.96 77.8854 102.322 78.8186C102.679 79.8049 102.654 80.9259 102.114 81.7984C101.444 82.983 100.119 83.6423 98.6327 83.5423ZM98.228 78.65C97.8565 78.6251 97.4245 78.7029 97.2393 79.0647C96.9936 79.5293 97.313 80.2993 98.0337 80.6685C98.2916 80.7928 98.5532 80.8639 98.8186 80.8817C99.19 80.9067 99.622 80.8289 99.8073 80.4671C99.932 80.2082 99.9012 79.8853 99.8063 79.7186C99.6694 79.3886 99.3732 79.0479 99.0129 78.8633C98.808 78.7426 98.4933 78.6679 98.228 78.65Z" fill="white"/>
<path d="M94.4709 44.4407L82.8308 43.1228C82.3 43.0871 81.7953 42.6789 81.6732 42.1359C81.5512 41.593 81.7513 41.0182 82.2513 40.731L92.6025 33.7809L94.0992 36.0205L86.7704 40.9281L94.7592 41.8399L94.4709 44.4407Z" fill="white"/>
<path d="M102.328 66.8684L90.7231 62.773C90.2528 62.6344 89.9604 62.2405 89.8878 61.7544C89.8151 61.2684 89.9547 60.7966 90.2954 60.4987L97.2842 54.3394L99.0116 56.3269L93.7265 60.9969L103.2 64.3073L102.328 66.8684Z" fill="white"/>
<path d="M121.422 88.8912L100.517 80.4227C100.05 80.2308 99.7082 79.7798 99.6923 79.2438C99.6764 78.7077 99.9222 78.2428 100.419 78.0087L108.232 73.8269L109.509 76.1597L104.189 79.0115L122.446 86.4458L121.422 88.8912Z" fill="white"/>
<path d="M117.378 122.735C115.566 120.42 106.825 117.263 98.3993 114.182C88.6192 110.634 78.5281 106.959 73.7831 103.109C68.1839 98.5054 64.0177 90.9488 61.045 85.3986C59.2964 82.1778 57.639 79.1772 56.6219 78.4667C55.6047 77.7562 52.9911 76.9918 49.9565 76.1456C44.2059 74.4745 36.3651 72.1813 31.2214 67.9295C23.3559 61.408 21.0564 54.6191 20.9725 54.2924L23.4854 53.445C23.4817 53.4982 25.6516 59.8505 32.9135 65.8498C37.6017 69.7499 45.1845 71.9188 50.7265 73.5223C54.1253 74.5001 56.7919 75.2681 58.1659 76.2166C59.7447 77.2859 61.307 80.1196 63.4283 84.1144C66.3628 89.4481 70.3315 96.7773 75.5282 101.033C79.9165 104.645 90.2163 108.388 99.3211 111.676C108.893 115.155 117.163 118.173 119.468 121.057L117.378 122.735Z" fill="white"/>
<path d="M49.0839 74.4303L46.4469 74.0391C48.9505 57.2683 45.5938 45.8208 41.9774 41.1423C40.7555 39.5638 39.436 38.6201 38.1668 38.4812C38.1138 38.4777 35.4889 38.6752 33.8132 54.2726C33.3458 58.6764 25.5652 58.6872 24.0197 58.6901L24.0993 56.0236C26.9177 56.1064 31.0192 55.3671 31.1688 53.9878C32.5415 41.202 34.746 35.5793 38.2995 35.8184C38.3525 35.8219 38.3526 35.8219 38.4056 35.8255C40.4173 36.0143 42.3547 37.2669 44.0661 39.466C50.4185 47.6952 50.7052 63.4247 49.0839 74.4303Z" fill="white"/>
</g>
</svg>
